<?xml version="1.0" encoding="UTF-8"?>
<!DOCTYPE svg PUBLIC "-//W3C//DTD SVG 1.1//EN" "http://www.w3.org/Graphics/SVG/1.1/DTD/svg11.dtd">
<svg xmlns="http://www.w3.org/2000/svg" version="1.1" width="64px" height="64px" style="shape-rendering:geometricPrecision; text-rendering:geometricPrecision; image-rendering:optimizeQuality; fill-rule:evenodd; clip-rule:evenodd" xmlns:xlink="http://www.w3.org/1999/xlink">
<g><path style="opacity:0.944" fill="#0276bd" d="M 27.5,5.5 C 32.3645,5.00112 36.8645,6.00112 41,8.5C 42.5174,14.0802 42.8508,19.7469 42,25.5C 41.2155,27.286 40.0488,28.786 38.5,30C 32.7222,30.0941 27.0555,30.7608 21.5,32C 20.2986,32.9025 19.4652,34.0692 19,35.5C 18.5017,38.8168 18.335,42.1501 18.5,45.5C 8.64322,46.823 4.30989,42.4897 5.5,32.5C 5.02159,28.5008 6.02159,25.0008 8.5,22C 16.0857,20.8976 23.7524,20.0642 31.5,19.5C 27.5546,18.5091 23.5546,18.1758 19.5,18.5C 17.9602,11.1993 20.6269,6.86595 27.5,5.5 Z M 23.5,12.5 C 24.675,12.281 25.675,12.6143 26.5,13.5C 24.9483,14.7979 23.9483,14.4646 23.5,12.5 Z"/></g>
<g><path style="opacity:0.954" fill="#ffc106" d="M 43.5,17.5 C 53.3469,16.1458 57.6802,20.4791 56.5,30.5C 56.8892,34.458 55.8892,37.958 53.5,41C 45.9143,42.1024 38.2476,42.9358 30.5,43.5C 34.4454,44.4909 38.4454,44.8242 42.5,44.5C 42.6989,47.941 42.1989,51.2744 41,54.5C 22.898,61.6058 15.898,55.6058 20,36.5C 20.3742,35.5838 20.8742,34.7504 21.5,34C 27.0555,32.7608 32.7222,32.0941 38.5,32C 39.9308,31.5348 41.0975,30.7014 42,29.5C 43.3537,25.6372 43.8537,21.6372 43.5,17.5 Z M 35.5,48.5 C 36.675,48.281 37.675,48.6143 38.5,49.5C 36.9483,50.7979 35.9483,50.4646 35.5,48.5 Z"/></g>
</svg>
