<?xml version="1.0" encoding="UTF-8"?>
<!DOCTYPE svg PUBLIC "-//W3C//DTD SVG 1.1//EN" "http://www.w3.org/Graphics/SVG/1.1/DTD/svg11.dtd">
<svg xmlns="http://www.w3.org/2000/svg" version="1.1" width="51px" height="51px" style="shape-rendering:geometricPrecision; text-rendering:geometricPrecision; image-rendering:optimizeQuality; fill-rule:evenodd; clip-rule:evenodd" xmlns:xlink="http://www.w3.org/1999/xlink">
<g><path style="opacity:0.78" fill="#00c4c4" d="M 33.5,0.5 C 30.9097,5.34894 28.5764,10.3489 26.5,15.5C 26.5,16.1667 26.1667,16.5 25.5,16.5C 25.5,15.8333 25.5,15.1667 25.5,14.5C 23.8484,10.5303 21.6817,6.86363 19,3.5C 17.9231,4.42949 16.7564,5.09616 15.5,5.5C 15.7512,3.82972 16.4178,2.32972 17.5,1C 22.8229,0.500649 28.1563,0.333983 33.5,0.5 Z"/></g>
<g><path style="opacity:0.593" fill="#009595" d="M 33.5,0.5 C 35.5576,2.92658 37.3909,5.59324 39,8.5C 40.4114,10.6504 41.2447,12.9837 41.5,15.5C 36.5,15.5 31.5,15.5 26.5,15.5C 28.5764,10.3489 30.9097,5.34894 33.5,0.5 Z"/></g>
<g><path style="opacity:0.891" fill="#00dfdf" d="M 25.5,14.5 C 21.1667,14.5 16.8333,14.5 12.5,14.5C 12.5,13.1667 12.5,11.8333 12.5,10.5C 13.2632,8.63159 14.2632,6.96492 15.5,5.5C 16.7564,5.09616 17.9231,4.42949 19,3.5C 21.6817,6.86363 23.8484,10.5303 25.5,14.5 Z"/></g>
<g><path style="opacity:0.793" fill="#00c4c4" d="M 12.5,10.5 C 12.5,11.8333 12.5,13.1667 12.5,14.5C 16.8333,14.5 21.1667,14.5 25.5,14.5C 25.5,15.1667 25.5,15.8333 25.5,16.5C 23.6947,20.7729 21.3614,24.7729 18.5,28.5C 14.807,24.4507 12.1404,19.784 10.5,14.5C 10.6682,12.8295 11.3349,11.4961 12.5,10.5 Z"/></g>
<g><path style="opacity:0.789" fill="#00c4c4" d="M 40.5,37.5 C 40.5,36.5 40.5,35.5 40.5,34.5C 35.8333,34.5 31.1667,34.5 26.5,34.5C 26.5,34.1667 26.5,33.8333 26.5,33.5C 28.4711,28.8949 30.9711,24.5615 34,20.5C 36.7072,25.4155 39.5406,30.2488 42.5,35C 41.9341,35.9947 41.2674,36.828 40.5,37.5 Z"/></g>
<g><path style="opacity:0.6" fill="#009898" d="M 25.5,34.5 C 23.3023,39.0967 21.3023,43.7633 19.5,48.5C 24.1667,48.5 28.8333,48.5 33.5,48.5C 33.8333,48.5 34.1667,48.5 34.5,48.5C 28.9871,49.8157 23.3204,49.8157 17.5,48.5C 14.7311,44.3987 12.3978,40.0653 10.5,35.5C 15.456,34.5059 20.456,34.1725 25.5,34.5 Z"/></g>
<g><path style="opacity:0.768" fill="#00c4c4" d="M 26.5,33.5 C 26.5,33.8333 26.5,34.1667 26.5,34.5C 28.8039,39.1499 31.1373,43.8165 33.5,48.5C 28.8333,48.5 24.1667,48.5 19.5,48.5C 21.3023,43.7633 23.3023,39.0967 25.5,34.5C 25.5,33.8333 25.8333,33.5 26.5,33.5 Z"/></g>
<g><path style="opacity:0.891" fill="#00dbdb" d="M 26.5,34.5 C 31.1667,34.5 35.8333,34.5 40.5,34.5C 40.5,35.5 40.5,36.5 40.5,37.5C 38.7664,41.2996 36.7664,44.9663 34.5,48.5C 34.1667,48.5 33.8333,48.5 33.5,48.5C 31.1373,43.8165 28.8039,39.1499 26.5,34.5 Z"/></g>
</svg>
