<?xml version="1.0" encoding="UTF-8"?>
<!DOCTYPE svg PUBLIC "-//W3C//DTD SVG 1.1//EN" "http://www.w3.org/Graphics/SVG/1.1/DTD/svg11.dtd">
<svg xmlns="http://www.w3.org/2000/svg" version="1.1" width="405px" height="405px" style="shape-rendering:geometricPrecision; text-rendering:geometricPrecision; image-rendering:optimizeQuality; fill-rule:evenodd; clip-rule:evenodd" xmlns:xlink="http://www.w3.org/1999/xlink">
<g><path style="opacity:0.42" fill="#092127" d="M 110.5,26.5 C 116.69,25.5665 122.857,25.2331 129,25.5C 133.781,26.6443 138.281,28.311 142.5,30.5C 132.094,27.2202 121.428,25.8869 110.5,26.5 Z"/></g>
<g><path style="opacity:0.455" fill="#07252a" d="M 279.5,25.5 C 277.735,26.4614 275.735,26.7947 273.5,26.5C 275.218,25.776 277.052,25.1094 279,24.5C 279.399,24.7284 279.565,25.0618 279.5,25.5 Z"/></g>
<g><path style="opacity:0.796" fill="#10333e" d="M 109.5,26.5 C 107.898,28.0739 105.898,28.7406 103.5,28.5C 105.109,27.2291 106.942,26.2291 109,25.5C 109.399,25.7284 109.565,26.0618 109.5,26.5 Z"/></g>
<g><path style="opacity:1" fill="#09d3f7" d="M 279.5,25.5 C 284.179,25.3342 288.845,25.5008 293.5,26C 295.058,26.21 296.391,26.71 297.5,27.5C 311.89,35.0963 320.39,47.0963 323,63.5C 325.391,76.0632 326.058,88.7298 325,101.5C 323.49,114.225 321.657,126.891 319.5,139.5C 325.884,140.961 332.217,142.628 338.5,144.5C 339.78,145.931 341.447,146.598 343.5,146.5C 344.78,147.931 346.447,148.598 348.5,148.5C 354.182,152.008 360.182,155.008 366.5,157.5C 367.659,159.25 369.326,160.25 371.5,160.5C 373.147,162.326 375.147,163.66 377.5,164.5C 378.262,166.262 379.596,167.262 381.5,167.5C 383.239,170.243 385.573,172.243 388.5,173.5C 389.167,174.833 390.167,175.833 391.5,176.5C 396.082,182.654 399.915,189.321 403,196.5C 403.499,200.821 403.666,205.154 403.5,209.5C 402.763,215.982 400.596,221.982 397,227.5C 391.996,233.336 386.829,239.003 381.5,244.5C 379.596,244.738 378.262,245.738 377.5,247.5C 375.147,248.34 373.147,249.674 371.5,251.5C 369.973,251.427 368.973,252.094 368.5,253.5C 365.669,254.079 363.336,255.412 361.5,257.5C 358.485,259.674 355.151,261.341 351.5,262.5C 348.759,262.707 346.426,263.707 344.5,265.5C 342.447,265.402 340.78,266.069 339.5,267.5C 336.458,267.733 333.792,268.733 331.5,270.5C 329.102,270.259 327.102,270.926 325.5,272.5C 322.739,271.915 321.073,272.915 320.5,275.5C 327.29,300.661 328.123,325.994 323,351.5C 319.829,362.824 313.995,372.491 305.5,380.5C 302.515,381.326 299.849,382.659 297.5,384.5C 294.572,384.565 291.905,385.232 289.5,386.5C 283.998,387.474 278.665,387.14 273.5,385.5C 271.095,384.232 268.428,383.565 265.5,383.5C 265.167,383.5 264.833,383.5 264.5,383.5C 263.365,381.787 261.698,381.12 259.5,381.5C 257.447,381.598 255.78,380.931 254.5,379.5C 254.5,378.5 254.5,377.5 254.5,376.5C 251.833,376.167 249.167,375.833 246.5,375.5C 244.847,375.34 243.514,374.674 242.5,373.5C 242.027,372.094 241.027,371.427 239.5,371.5C 238.508,371.672 237.842,371.338 237.5,370.5C 237.027,369.094 236.027,368.427 234.5,368.5C 234.027,367.094 233.027,366.427 231.5,366.5C 230.738,364.738 229.404,363.738 227.5,363.5C 226.738,361.738 225.404,360.738 223.5,360.5C 222.738,358.738 221.404,357.738 219.5,357.5C 218.415,355.413 216.749,354.08 214.5,353.5C 213.5,353.167 212.833,352.5 212.5,351.5C 211.415,349.413 209.749,348.08 207.5,347.5C 207.512,344.858 206.179,343.525 203.5,343.5C 203.103,342.475 202.437,342.308 201.5,343C 199.627,344.704 197.96,346.537 196.5,348.5C 193.573,349.757 191.239,351.757 189.5,354.5C 187.251,355.08 185.585,356.413 184.5,358.5C 182.596,358.738 181.262,359.738 180.5,361.5C 174.976,364.092 169.976,367.425 165.5,371.5C 162.008,372.41 159.008,374.076 156.5,376.5C 156.158,377.338 155.492,377.672 154.5,377.5C 150.863,378.263 147.53,379.597 144.5,381.5C 142.214,381.595 140.214,382.262 138.5,383.5C 137.432,384.434 136.099,384.768 134.5,384.5C 126.529,385.323 118.529,385.656 110.5,385.5C 108.485,384.076 106.152,383.41 103.5,383.5C 101.326,383.25 99.6594,382.25 98.5,380.5C 98.0269,379.094 97.0269,378.427 95.5,378.5C 93.1667,376.833 91.1667,374.833 89.5,372.5C 89.573,370.973 88.9063,369.973 87.5,369.5C 86.6618,369.158 86.3284,368.492 86.5,367.5C 86.3404,365.847 85.6737,364.514 84.5,363.5C 84.3404,361.847 83.6737,360.514 82.5,359.5C 81.596,358.791 81.2627,357.791 81.5,356.5C 80.8684,352.298 79.8684,348.298 78.5,344.5C 78.5,344.167 78.5,343.833 78.5,343.5C 77.1667,330.167 77.1667,316.833 78.5,303.5C 78.5,303.167 78.5,302.833 78.5,302.5C 80.1636,293.855 81.8303,285.188 83.5,276.5C 83.5,276.167 83.5,275.833 83.5,275.5C 82.713,273.896 81.3797,273.229 79.5,273.5C 76.9327,273.279 74.5994,272.612 72.5,271.5C 71.3646,269.787 69.698,269.12 67.5,269.5C 66.3646,267.787 64.698,267.12 62.5,267.5C 55.3013,265.565 48.6346,262.565 42.5,258.5C 42.0269,257.094 41.0269,256.427 39.5,256.5C 38.5084,256.672 37.8417,256.338 37.5,255.5C 37.0269,254.094 36.0269,253.427 34.5,253.5C 34.0269,252.094 33.0269,251.427 31.5,251.5C 31.0269,250.094 30.0269,249.427 28.5,249.5C 27.7377,247.738 26.4044,246.738 24.5,246.5C 23.7377,244.738 22.4044,243.738 20.5,243.5C 16.1667,240.5 12.5,236.833 9.5,232.5C 9.57298,230.973 8.90632,229.973 7.5,229.5C 5.04993,227.371 3.38326,224.704 2.5,221.5C 2.20414,219.597 1.53747,217.93 0.5,216.5C 0.166667,216.5 -0.166667,216.5 -0.5,216.5C -0.5,209.167 -0.5,201.833 -0.5,194.5C -0.166667,194.5 0.166667,194.5 0.5,194.5C 1.93127,193.22 2.59794,191.553 2.5,189.5C 3.90632,189.027 4.57298,188.027 4.5,186.5C 5.90632,186.027 6.57298,185.027 6.5,183.5C 6.32842,182.508 6.66175,181.842 7.5,181.5C 8.5,181.167 9.16667,180.5 9.5,179.5C 9.5,178.833 9.83333,178.5 10.5,178.5C 13.5,176.167 16.1667,173.5 18.5,170.5C 20.1436,170.19 21.1436,169.19 21.5,167.5C 23.0269,167.573 24.0269,166.906 24.5,165.5C 26.7488,164.92 28.4154,163.587 29.5,161.5C 29.8417,160.662 30.5084,160.328 31.5,160.5C 33.0269,160.573 34.0269,159.906 34.5,158.5C 35.5137,157.326 36.847,156.66 38.5,156.5C 40.0269,156.573 41.0269,155.906 41.5,154.5C 44.5154,152.326 47.8487,150.659 51.5,149.5C 53.5529,149.598 55.2196,148.931 56.5,147.5C 58.698,147.88 60.3646,147.213 61.5,145.5C 66.8012,142.731 72.4678,140.731 78.5,139.5C 80.5,139.167 82.5,138.833 84.5,138.5C 78.8042,115.817 76.8042,92.8171 78.5,69.5C 78.5,69.1667 78.5,68.8333 78.5,68.5C 80.3247,61.5472 82.3247,54.5472 84.5,47.5C 85.9063,47.0269 86.573,46.0269 86.5,44.5C 86.3284,43.5084 86.6618,42.8417 87.5,42.5C 88.9063,42.0269 89.573,41.0269 89.5,39.5C 90.8333,38.8333 91.8333,37.8333 92.5,36.5C 93.5,36.1667 94.1667,35.5 94.5,34.5C 95.5,34.1667 96.1667,33.5 96.5,32.5C 98.0269,32.573 99.0269,31.9063 99.5,30.5C 101.153,30.3404 102.486,29.6737 103.5,28.5C 105.898,28.7406 107.898,28.0739 109.5,26.5C 109.833,26.5 110.167,26.5 110.5,26.5C 121.428,25.8869 132.094,27.2202 142.5,30.5C 143.791,30.2627 144.791,30.596 145.5,31.5C 146.78,32.9313 148.447,33.5979 150.5,33.5C 154.151,34.6589 157.485,36.3256 160.5,38.5C 161.659,40.2503 163.326,41.2503 165.5,41.5C 165.973,42.9063 166.973,43.573 168.5,43.5C 170.975,46.2411 173.975,48.2411 177.5,49.5C 178.262,51.2624 179.596,52.2624 181.5,52.5C 182.262,54.2624 183.596,55.2624 185.5,55.5C 189.867,59.8678 194.533,63.8678 199.5,67.5C 200.41,70.8143 201.743,71.1477 203.5,68.5C 207.771,65.8991 211.437,62.5658 214.5,58.5C 217.455,56.8777 220.122,54.8777 222.5,52.5C 223.5,52.1667 224.167,51.5 224.5,50.5C 226.853,49.6597 228.853,48.3264 230.5,46.5C 232.027,46.573 233.027,45.9063 233.5,44.5C 235.404,44.2624 236.738,43.2624 237.5,41.5C 237.842,40.6618 238.508,40.3284 239.5,40.5C 241.027,40.573 242.027,39.9063 242.5,38.5C 242.842,37.6618 243.508,37.3284 244.5,37.5C 248.151,36.3411 251.485,34.6744 254.5,32.5C 256.553,32.5979 258.22,31.9313 259.5,30.5C 264.355,29.4565 269.022,28.1231 273.5,26.5C 275.735,26.7947 277.735,26.4614 279.5,25.5 Z M 125.5,44.5 C 128.937,45.9448 132.603,46.9448 136.5,47.5C 137.78,48.9313 139.447,49.5979 141.5,49.5C 144.515,51.6744 147.849,53.3411 151.5,54.5C 151.842,55.3382 152.508,55.6716 153.5,55.5C 153.973,56.9063 154.973,57.573 156.5,57.5C 156.842,58.3382 157.508,58.6716 158.5,58.5C 158.973,59.9063 159.973,60.573 161.5,60.5C 161.973,61.9063 162.973,62.573 164.5,62.5C 164.973,63.9063 165.973,64.573 167.5,64.5C 168.262,66.2624 169.596,67.2624 171.5,67.5C 172.262,69.2624 173.596,70.2624 175.5,70.5C 176.911,72.914 178.911,74.5806 181.5,75.5C 181.833,76.5 182.5,77.1667 183.5,77.5C 185.016,79.1857 186.35,81.019 187.5,83C 186.259,84.7309 185.259,86.5642 184.5,88.5C 183.5,88.8333 182.833,89.5 182.5,90.5C 180.086,91.9108 178.419,93.9108 177.5,96.5C 176.5,96.8333 175.833,97.5 175.5,98.5C 173.738,99.2623 172.738,100.596 172.5,102.5C 171.167,102.5 170.5,103.167 170.5,104.5C 168.413,105.585 167.08,107.251 166.5,109.5C 165.662,109.842 165.328,110.508 165.5,111.5C 163.413,112.585 162.08,114.251 161.5,116.5C 160.094,116.973 159.427,117.973 159.5,119.5C 157.738,120.262 156.738,121.596 156.5,123.5C 155.833,123.5 155.5,123.833 155.5,124.5C 151.316,124.851 147.316,125.518 143.5,126.5C 142.833,126.5 142.167,126.5 141.5,126.5C 141.565,126.062 141.399,125.728 141,125.5C 127.747,127.559 115.08,129.892 103,132.5C 97.3477,113.624 95.3477,94.2905 97,74.5C 97.5372,63.8712 101.371,54.7046 108.5,47C 113.932,44.7953 119.598,43.962 125.5,44.5 Z M 300.5,52.5 C 300.328,53.4916 300.662,54.1583 301.5,54.5C 305.489,65.6183 307.489,77.1183 307.5,89C 306.782,101.576 305.449,114.076 303.5,126.5C 302.916,128.777 301.749,130.777 300,132.5C 293.358,130.863 286.858,129.863 280.5,129.5C 269.837,127.028 259.171,125.028 248.5,123.5C 238.569,110.066 228.069,97.0659 217,84.5C 216.333,83.5 216.333,82.5 217,81.5C 218.376,80.2949 219.542,78.9616 220.5,77.5C 223.764,75.9059 226.431,73.5725 228.5,70.5C 230.749,69.9202 232.415,68.5869 233.5,66.5C 235.404,66.2624 236.738,65.2624 237.5,63.5C 241.852,61.3265 245.852,58.6599 249.5,55.5C 255.151,53.3412 260.484,50.6745 265.5,47.5C 273.644,44.8704 281.977,44.0371 290.5,45C 294.276,46.9474 297.61,49.4474 300.5,52.5 Z M 202.5,96.5 C 203.833,98.5 205.5,100.167 207.5,101.5C 207.427,103.027 208.094,104.027 209.5,104.5C 210.167,105.833 211.167,106.833 212.5,107.5C 212.427,109.027 213.094,110.027 214.5,110.5C 214.833,111.5 215.5,112.167 216.5,112.5C 216.427,114.027 217.094,115.027 218.5,115.5C 218.833,116.5 219.5,117.167 220.5,117.5C 220.427,119.027 221.094,120.027 222.5,120.5C 215.867,121.83 208.867,122.497 201.5,122.5C 194.5,122.333 187.5,122.167 180.5,122C 187.698,113.308 195.032,104.808 202.5,96.5 Z M 180.5,141.5 C 199.434,141.065 218.268,141.732 237,143.5C 237.383,142.944 237.883,142.611 238.5,142.5C 238.427,144.027 239.094,145.027 240.5,145.5C 240.427,147.027 241.094,148.027 242.5,148.5C 243.11,150.434 244.11,152.101 245.5,153.5C 245.427,155.027 246.094,156.027 247.5,156.5C 247.427,158.027 248.094,159.027 249.5,159.5C 249.328,160.492 249.662,161.158 250.5,161.5C 250.427,163.027 251.094,164.027 252.5,164.5C 252.427,166.027 253.094,167.027 254.5,167.5C 254.66,169.153 255.326,170.486 256.5,171.5C 256.427,173.027 257.094,174.027 258.5,174.5C 258.66,176.153 259.326,177.486 260.5,178.5C 260.427,180.027 261.094,181.027 262.5,181.5C 263.326,184.485 264.659,187.151 266.5,189.5C 266.75,191.674 267.75,193.341 269.5,194.5C 270.326,197.485 271.659,200.151 273.5,202.5C 273.5,204.833 273.5,207.167 273.5,209.5C 271.659,211.849 270.326,214.515 269.5,217.5C 267.412,219.336 266.079,221.669 265.5,224.5C 263.992,226.181 262.992,228.181 262.5,230.5C 260.75,231.659 259.75,233.326 259.5,235.5C 258.326,236.514 257.66,237.847 257.5,239.5C 256.094,239.973 255.427,240.973 255.5,242.5C 254.662,242.842 254.328,243.508 254.5,244.5C 253.094,244.973 252.427,245.973 252.5,247.5C 251.662,247.842 251.328,248.508 251.5,249.5C 250.094,249.973 249.427,250.973 249.5,252.5C 248.662,252.842 248.328,253.508 248.5,254.5C 247.094,254.973 246.427,255.973 246.5,257.5C 245.094,257.973 244.427,258.973 244.5,260.5C 243.094,260.973 242.427,261.973 242.5,263.5C 241.662,263.842 241.328,264.508 241.5,265.5C 240.038,266.458 238.705,267.624 237.5,269C 213.481,271.166 189.481,270.999 165.5,268.5C 151.288,248.403 139.455,227.07 130,204.5C 140.781,183.092 152.948,162.592 166.5,143C 171.351,142.826 176.018,142.326 180.5,141.5 Z M 138.5,150.5 C 136.75,151.659 135.75,153.326 135.5,155.5C 134.094,155.973 133.427,156.973 133.5,158.5C 132.662,158.842 132.328,159.508 132.5,160.5C 131.094,160.973 130.427,161.973 130.5,163.5C 129.326,164.514 128.66,165.847 128.5,167.5C 127.094,167.973 126.427,168.973 126.5,170.5C 125.326,171.514 124.66,172.847 124.5,174.5C 123.094,174.973 122.427,175.973 122.5,177.5C 121.662,177.842 121.328,178.508 121.5,179.5C 120.542,179.953 119.708,180.619 119,181.5C 114.943,171.786 111.109,161.952 107.5,152C 112.918,150.387 118.251,148.887 123.5,147.5C 128.292,147.651 132.959,146.984 137.5,145.5C 138.308,145.808 138.975,146.308 139.5,147C 138.663,148.011 138.33,149.178 138.5,150.5 Z M 279.5,147.5 C 282.876,149.082 286.542,149.749 290.5,149.5C 294.316,150.154 295.983,152.487 295.5,156.5C 294.596,157.209 294.263,158.209 294.5,159.5C 292.733,161.792 291.733,164.458 291.5,167.5C 290.596,168.209 290.263,169.209 290.5,170.5C 288.205,174.186 286.372,178.186 285,182.5C 278.167,170.833 271.333,159.167 264.5,147.5C 269.449,146.904 274.449,146.904 279.5,147.5 Z M 92.5,166.5 C 92.2594,168.898 92.9261,170.898 94.5,172.5C 94.1201,174.698 94.7868,176.365 96.5,177.5C 97.3475,183.059 99.3475,188.059 102.5,192.5C 102.402,194.553 103.069,196.22 104.5,197.5C 104.229,199.38 104.896,200.713 106.5,201.5C 106.263,202.791 106.596,203.791 107.5,204.5C 107.167,206.5 106.833,208.5 106.5,210.5C 105.326,211.514 104.66,212.847 104.5,214.5C 102.707,216.426 101.707,218.759 101.5,221.5C 99.2057,224.37 97.8723,227.703 97.5,231.5C 96.596,232.209 96.2627,233.209 96.5,234.5C 95.0687,235.78 94.4021,237.447 94.5,239.5C 92.9261,241.102 92.2594,243.102 92.5,245.5C 90.3987,248.797 89.0653,252.463 88.5,256.5C 85.2107,255.626 81.8774,254.959 78.5,254.5C 76.2084,252.733 73.5418,251.733 70.5,251.5C 69.2196,250.069 67.5529,249.402 65.5,249.5C 65.1583,248.662 64.4916,248.328 63.5,248.5C 58.4844,245.326 53.1511,242.659 47.5,240.5C 38.9019,234.919 31.0686,228.252 24,220.5C 20.8843,216.101 18.7176,211.268 17.5,206C 18.0779,204.189 18.5779,202.355 19,200.5C 20.9228,196.318 23.0894,192.318 25.5,188.5C 27.1667,187.5 28.5,186.167 29.5,184.5C 31.7488,183.92 33.4154,182.587 34.5,180.5C 36.4044,180.262 37.7377,179.262 38.5,177.5C 40.0269,177.573 41.0269,176.906 41.5,175.5C 43.674,175.25 45.3406,174.25 46.5,172.5C 47.4916,172.672 48.1583,172.338 48.5,171.5C 52.8178,170.008 56.8178,168.008 60.5,165.5C 61.4916,165.672 62.1583,165.338 62.5,164.5C 64.5529,164.598 66.2196,163.931 67.5,162.5C 71.5368,161.935 75.2034,160.601 78.5,158.5C 79.791,158.737 80.791,158.404 81.5,157.5C 83.861,157.326 86.1944,156.993 88.5,156.5C 89.2635,160.137 90.5968,163.47 92.5,166.5 Z M 317.5,156.5 C 318.568,157.434 319.901,157.768 321.5,157.5C 322.78,158.931 324.447,159.598 326.5,159.5C 328.214,160.738 330.214,161.405 332.5,161.5C 333.78,162.931 335.447,163.598 337.5,163.5C 338.78,164.931 340.447,165.598 342.5,165.5C 347.516,168.674 352.849,171.341 358.5,173.5C 358.973,174.906 359.973,175.573 361.5,175.5C 361.973,176.906 362.973,177.573 364.5,177.5C 364.973,178.906 365.973,179.573 367.5,179.5C 368.262,181.262 369.596,182.262 371.5,182.5C 373.833,185.5 376.5,188.167 379.5,190.5C 379.5,191.167 379.833,191.5 380.5,191.5C 380.427,193.027 381.094,194.027 382.5,194.5C 382.427,196.027 383.094,197.027 384.5,197.5C 385.295,201.785 385.628,206.119 385.5,210.5C 384.227,212.713 383.227,215.046 382.5,217.5C 380.738,218.262 379.738,219.596 379.5,221.5C 376.833,223.5 374.5,225.833 372.5,228.5C 370.251,229.08 368.585,230.413 367.5,232.5C 365.973,232.427 364.973,233.094 364.5,234.5C 362.973,234.427 361.973,235.094 361.5,236.5C 359.973,236.427 358.973,237.094 358.5,238.5C 356.847,238.66 355.514,239.326 354.5,240.5C 352.973,240.427 351.973,241.094 351.5,242.5C 349.847,242.66 348.514,243.326 347.5,244.5C 344.759,244.707 342.426,245.707 340.5,247.5C 339.508,247.328 338.842,247.662 338.5,248.5C 336.447,248.402 334.78,249.069 333.5,250.5C 331.447,250.402 329.78,251.069 328.5,252.5C 326.214,252.595 324.214,253.262 322.5,254.5C 320.193,254.986 318.027,254.986 316,254.5C 310.577,237.729 304.077,221.396 296.5,205.5C 303.775,190.281 309.942,174.614 315,158.5C 315.417,157.244 316.25,156.577 317.5,156.5 Z M 294.5,250.5 C 294.263,251.791 294.596,252.791 295.5,253.5C 295.433,255.401 295.767,257.234 296.5,259C 295.653,260.771 294.32,261.937 292.5,262.5C 283.416,263.317 274.416,264.651 265.5,266.5C 265.167,266 264.833,265.5 264.5,265C 271.705,253.428 278.539,241.595 285,229.5C 288.216,236.59 291.383,243.59 294.5,250.5 Z M 121.5,232.5 C 123.25,236.335 125.25,240.001 127.5,243.5C 127.427,245.027 128.094,246.027 129.5,246.5C 131.981,252.13 134.981,257.463 138.5,262.5C 138.539,263.583 138.873,264.583 139.5,265.5C 138.167,265.833 136.833,266.167 135.5,266.5C 125.934,265.387 116.601,263.387 107.5,260.5C 110.646,250.226 114.48,240.226 119,230.5C 119.708,231.381 120.542,232.047 121.5,232.5 Z M 298.5,279.5 C 299.833,279.5 301.167,279.5 302.5,279.5C 304.842,290.566 306.842,301.566 308.5,312.5C 307.949,317.98 307.949,323.313 308.5,328.5C 308.5,329.5 308.5,330.5 308.5,331.5C 307.011,336.617 306.011,341.951 305.5,347.5C 304.262,349.214 303.595,351.214 303.5,353.5C 301.583,356.331 299.917,359.331 298.5,362.5C 297.5,362.833 296.833,363.5 296.5,364.5C 292.384,366.885 287.884,367.885 283,367.5C 275.955,367.197 269.122,365.863 262.5,363.5C 262.158,362.662 261.492,362.328 260.5,362.5C 258.819,360.992 256.819,359.992 254.5,359.5C 254.158,358.662 253.492,358.328 252.5,358.5C 251.341,356.75 249.674,355.75 247.5,355.5C 247.027,354.094 246.027,353.427 244.5,353.5C 244.027,352.094 243.027,351.427 241.5,351.5C 241.027,350.094 240.027,349.427 238.5,349.5C 237.738,347.738 236.404,346.738 234.5,346.5C 233.415,344.413 231.749,343.08 229.5,342.5C 225.504,338.401 221.337,334.401 217,330.5C 216.333,329.833 216.333,329.167 217,328.5C 228.593,315.578 239.426,302.078 249.5,288C 253.736,287.665 257.736,286.832 261.5,285.5C 264.385,285.806 267.052,285.473 269.5,284.5C 271.961,285.305 274.294,284.972 276.5,283.5C 284.115,283.042 291.448,281.708 298.5,279.5 Z M 105.5,280.5 C 107.444,281.828 109.444,282.161 111.5,281.5C 115.36,282.804 119.36,283.471 123.5,283.5C 127.523,284.726 131.689,285.726 136,286.5C 136.383,285.944 136.883,285.611 137.5,285.5C 143.455,286.495 149.455,287.328 155.5,288C 156.066,288.995 156.733,289.828 157.5,290.5C 158.604,292.389 159.937,294.055 161.5,295.5C 161.427,297.027 162.094,298.027 163.5,298.5C 164.701,300.909 166.367,302.909 168.5,304.5C 168.427,306.027 169.094,307.027 170.5,307.5C 170.833,308.5 171.5,309.167 172.5,309.5C 172.427,311.027 173.094,312.027 174.5,312.5C 176.177,314.54 177.844,316.54 179.5,318.5C 180.5,320.167 181.833,321.5 183.5,322.5C 184.124,324.754 185.457,326.421 187.5,327.5C 187.5,328.833 188.167,329.5 189.5,329.5C 189.5,329.833 189.5,330.167 189.5,330.5C 185.564,332.766 182.231,335.766 179.5,339.5C 177.251,340.08 175.585,341.413 174.5,343.5C 172.596,343.738 171.262,344.738 170.5,346.5C 168.596,346.738 167.262,347.738 166.5,349.5C 164.973,349.427 163.973,350.094 163.5,351.5C 162.508,351.328 161.842,351.662 161.5,352.5C 159.973,352.427 158.973,353.094 158.5,354.5C 156.973,354.427 155.973,355.094 155.5,356.5C 151.182,357.992 147.182,359.992 143.5,362.5C 141.447,362.402 139.78,363.069 138.5,364.5C 137.209,364.263 136.209,364.596 135.5,365.5C 132.572,365.565 129.905,366.232 127.5,367.5C 121.455,367.697 115.455,367.363 109.5,366.5C 101.763,358.48 97.5961,348.813 97,337.5C 95.3703,318.538 97.037,299.871 102,281.5C 103.011,280.663 104.178,280.33 105.5,280.5 Z M 222.5,292.5 C 221.094,292.973 220.427,293.973 220.5,295.5C 218.413,296.585 217.08,298.251 216.5,300.5C 214.413,301.585 213.08,303.251 212.5,305.5C 211.5,305.833 210.833,306.5 210.5,307.5C 208.413,308.585 207.08,310.251 206.5,312.5C 205.833,312.5 205.5,312.833 205.5,313.5C 203.983,313.511 202.816,314.177 202,315.5C 201.292,314.619 200.458,313.953 199.5,313.5C 193.357,305.846 187.357,298.013 181.5,290C 195.5,289.333 209.5,289.333 223.5,290C 222.748,290.671 222.414,291.504 222.5,292.5 Z"/></g>
<g><path style="opacity:0.11" fill="#0c1f23" d="M 273.5,26.5 C 269.022,28.1231 264.355,29.4565 259.5,30.5C 263.899,27.6934 268.566,26.3601 273.5,26.5 Z"/></g>
<g><path style="opacity:0.435" fill="#091b1d" d="M 103.5,28.5 C 102.486,29.6737 101.153,30.3404 99.5,30.5C 100.287,28.8958 101.62,28.2291 103.5,28.5 Z"/></g>
<g><path style="opacity:0.584" fill="#0d2a2d" d="M 99.5,30.5 C 99.0269,31.9063 98.0269,32.573 96.5,32.5C 96.9731,31.0937 97.9731,30.427 99.5,30.5 Z"/></g>
<g><path style="opacity:0.169" fill="#0c1b1e" d="M 145.5,31.5 C 147.553,31.4021 149.22,32.0687 150.5,33.5C 148.447,33.5979 146.78,32.9313 145.5,31.5 Z"/></g>
<g><path style="opacity:0.322" fill="#092024" d="M 259.5,30.5 C 258.22,31.9313 256.553,32.5979 254.5,32.5C 255.78,31.0687 257.447,30.4021 259.5,30.5 Z"/></g>
<g><path style="opacity:0.259" fill="#041519" d="M 96.5,32.5 C 96.1667,33.5 95.5,34.1667 94.5,34.5C 94.5,33.1667 95.1667,32.5 96.5,32.5 Z"/></g>
<g><path style="opacity:0.435" fill="#0a252a" d="M 94.5,34.5 C 94.1667,35.5 93.5,36.1667 92.5,36.5C 92.5,35.1667 93.1667,34.5 94.5,34.5 Z"/></g>
<g><path style="opacity:0.118" fill="#0a181b" d="M 254.5,32.5 C 251.485,34.6744 248.151,36.3411 244.5,37.5C 247.247,34.7933 250.58,33.1266 254.5,32.5 Z"/></g>
<g><path style="opacity:0.263" fill="#05151a" d="M 92.5,36.5 C 91.8333,37.8333 90.8333,38.8333 89.5,39.5C 89.5,37.5 90.5,36.5 92.5,36.5 Z"/></g>
<g><path style="opacity:0.145" fill="#091619" d="M 160.5,38.5 C 162.674,38.7497 164.341,39.7497 165.5,41.5C 163.326,41.2503 161.659,40.2503 160.5,38.5 Z"/></g>
<g><path style="opacity:0.557" fill="#0c282d" d="M 242.5,38.5 C 242.027,39.9063 241.027,40.573 239.5,40.5C 239.973,39.0937 240.973,38.427 242.5,38.5 Z"/></g>
<g><path style="opacity:0.376" fill="#0a242a" d="M 89.5,39.5 C 89.573,41.0269 88.9063,42.0269 87.5,42.5C 87.427,40.9731 88.0937,39.9731 89.5,39.5 Z"/></g>
<g><path style="opacity:0.008" fill="#091719" d="M 165.5,41.5 C 167.027,41.427 168.027,42.0937 168.5,43.5C 166.973,43.573 165.973,42.9063 165.5,41.5 Z"/></g>
<g><path style="opacity:0.498" fill="#0d2f35" d="M 237.5,41.5 C 236.738,43.2624 235.404,44.2624 233.5,44.5C 234.262,42.7376 235.596,41.7376 237.5,41.5 Z"/></g>
<g><path style="opacity:0.071" fill="#0d1c1f" d="M 300.5,52.5 C 297.61,49.4474 294.276,46.9474 290.5,45C 281.977,44.0371 273.644,44.8704 265.5,47.5C 275.212,41.8715 285.212,41.3715 295.5,46C 297.79,47.7772 299.457,49.9438 300.5,52.5 Z"/></g>
<g><path style="opacity:0.004" fill="#0b191b" d="M 168.5,43.5 C 172.049,44.7232 175.049,46.7232 177.5,49.5C 173.975,48.2411 170.975,46.2411 168.5,43.5 Z"/></g>
<g><path style="opacity:0.859" fill="#104e5b" d="M 233.5,44.5 C 233.027,45.9063 232.027,46.573 230.5,46.5C 230.973,45.0937 231.973,44.427 233.5,44.5 Z"/></g>
<g><path style="opacity:0.29" fill="#0d2329" d="M 86.5,44.5 C 86.573,46.0269 85.9063,47.0269 84.5,47.5C 84.427,45.9731 85.0937,44.9731 86.5,44.5 Z"/></g>
<g><path style="opacity:0.196" fill="#0d2226" d="M 230.5,46.5 C 228.853,48.3264 226.853,49.6597 224.5,50.5C 225.802,48.1782 227.802,46.8449 230.5,46.5 Z"/></g>
<g><path style="opacity:0.094" fill="#031113" d="M 136.5,47.5 C 138.553,47.4021 140.22,48.0687 141.5,49.5C 139.447,49.5979 137.78,48.9313 136.5,47.5 Z"/></g>
<g><path style="opacity:0.004" fill="#0b181c" d="M 177.5,49.5 C 179.404,49.7376 180.738,50.7376 181.5,52.5C 179.596,52.2624 178.262,51.2624 177.5,49.5 Z"/></g>
<g><path style="opacity:0.22" fill="#0b1b1e" d="M 141.5,49.5 C 145.42,50.1266 148.753,51.7933 151.5,54.5C 147.849,53.3411 144.515,51.6744 141.5,49.5 Z"/></g>
<g><path style="opacity:0.231" fill="#041518" d="M 224.5,50.5 C 224.167,51.5 223.5,52.1667 222.5,52.5C 222.5,51.1667 223.167,50.5 224.5,50.5 Z"/></g>
<g><path style="opacity:0.029" fill="#0d1c20" d="M 84.5,47.5 C 82.3247,54.5472 80.3247,61.5472 78.5,68.5C 78.4398,61.0966 80.4398,54.0966 84.5,47.5 Z"/></g>
<g><path style="opacity:0.122" fill="#0a181b" d="M 265.5,47.5 C 260.484,50.6745 255.151,53.3412 249.5,55.5C 254.247,51.7929 259.581,49.1263 265.5,47.5 Z"/></g>
<g><path style="opacity:0.004" fill="#09181a" d="M 181.5,52.5 C 183.404,52.7376 184.738,53.7376 185.5,55.5C 183.596,55.2624 182.262,54.2624 181.5,52.5 Z"/></g>
<g><path style="opacity:0.161" fill="#0e262b" d="M 222.5,52.5 C 220.122,54.8777 217.455,56.8777 214.5,58.5C 216.313,55.3528 218.98,53.3528 222.5,52.5 Z"/></g>
<g><path style="opacity:0.09" fill="#0a1b1f" d="M 301.5,54.5 C 303.656,57.4374 305.156,60.7708 306,64.5C 309.181,82.477 309.181,100.477 306,118.5C 305.721,121.457 304.887,124.123 303.5,126.5C 305.449,114.076 306.782,101.576 307.5,89C 307.489,77.1183 305.489,65.6183 301.5,54.5 Z"/></g>
<g><path style="opacity:0.184" fill="#081518" d="M 153.5,55.5 C 155.027,55.427 156.027,56.0937 156.5,57.5C 154.973,57.573 153.973,56.9063 153.5,55.5 Z"/></g>
<g><path style="opacity:0.227" fill="#0c1b1f" d="M 249.5,55.5 C 245.852,58.6599 241.852,61.3265 237.5,63.5C 240.803,59.8442 244.803,57.1775 249.5,55.5 Z"/></g>
<g><path style="opacity:0.282" fill="#0a1b1f" d="M 158.5,58.5 C 160.027,58.427 161.027,59.0937 161.5,60.5C 159.973,60.573 158.973,59.9063 158.5,58.5 Z"/></g>
<g><path style="opacity:0.004" fill="#0c1a1d" d="M 185.5,55.5 C 191.055,58.383 195.722,62.383 199.5,67.5C 194.533,63.8678 189.867,59.8678 185.5,55.5 Z"/></g>
<g><path style="opacity:0.294" fill="#091d21" d="M 161.5,60.5 C 163.027,60.427 164.027,61.0937 164.5,62.5C 162.973,62.573 161.973,61.9063 161.5,60.5 Z"/></g>
<g><path style="opacity:0.396" fill="#0c272c" d="M 164.5,62.5 C 166.027,62.427 167.027,63.0937 167.5,64.5C 165.973,64.573 164.973,63.9063 164.5,62.5 Z"/></g>
<g><path style="opacity:0.024" fill="#071416" d="M 237.5,63.5 C 236.738,65.2624 235.404,66.2624 233.5,66.5C 234.262,64.7376 235.596,63.7376 237.5,63.5 Z"/></g>
<g><path style="opacity:0.545" fill="#10323d" d="M 167.5,64.5 C 169.404,64.7376 170.738,65.7376 171.5,67.5C 169.596,67.2624 168.262,66.2624 167.5,64.5 Z"/></g>
<g><path style="opacity:0.91" fill="#144852" d="M 214.5,58.5 C 211.437,62.5658 207.771,65.8991 203.5,68.5C 206.563,64.4342 210.229,61.1009 214.5,58.5 Z"/></g>
<g><path style="opacity:0.004" fill="#0b191d" d="M 199.5,67.5 C 200.833,67.8333 202.167,68.1667 203.5,68.5C 201.743,71.1477 200.41,70.8143 199.5,67.5 Z"/></g>
<g><path style="opacity:0.631" fill="#123e46" d="M 171.5,67.5 C 173.404,67.7376 174.738,68.7376 175.5,70.5C 173.596,70.2624 172.262,69.2624 171.5,67.5 Z"/></g>
<g><path style="opacity:0.004" fill="#040f11" d="M 233.5,66.5 C 232.415,68.5869 230.749,69.9202 228.5,70.5C 229.585,68.4131 231.251,67.0798 233.5,66.5 Z"/></g>
<g><path style="opacity:0.686" fill="#12404a" d="M 175.5,70.5 C 178.089,71.4194 180.089,73.086 181.5,75.5C 178.911,74.5806 176.911,72.914 175.5,70.5 Z"/></g>
<g><path style="opacity:0.008" fill="#061113" d="M 228.5,70.5 C 226.431,73.5725 223.764,75.9059 220.5,77.5C 222.569,74.4275 225.236,72.0941 228.5,70.5 Z"/></g>
<g><path style="opacity:0.044" fill="#091619" d="M 125.5,44.5 C 119.598,43.962 113.932,44.7953 108.5,47C 101.371,54.7046 97.5372,63.8712 97,74.5C 95.3477,94.2905 97.3477,113.624 103,132.5C 115.08,129.892 127.747,127.559 141,125.5C 141.399,125.728 141.565,126.062 141.5,126.5C 127.973,128.956 114.306,131.289 100.5,133.5C 95.8417,114.445 94.0084,95.1112 95,75.5C 95.6785,64.1153 99.8451,54.282 107.5,46C 113.456,43.427 119.456,42.927 125.5,44.5 Z"/></g>
<g><path style="opacity:0.714" fill="#123c44" d="M 183.5,77.5 C 191.141,80.4607 191.475,84.1274 184.5,88.5C 185.259,86.5642 186.259,84.7309 187.5,83C 186.35,81.019 185.016,79.1857 183.5,77.5 Z"/></g>
<g><path style="opacity:0.604" fill="#133f47" d="M 182.5,90.5 C 181.581,93.0892 179.914,95.0892 177.5,96.5C 178.419,93.9108 180.086,91.9108 182.5,90.5 Z"/></g>
<g><path style="opacity:0.027" fill="#071214" d="M 297.5,27.5 C 307.995,31.158 315.495,38.158 320,48.5C 325.084,61.6704 327.584,75.337 327.5,89.5C 326.729,106.002 324.729,122.335 321.5,138.5C 327.532,139.731 333.199,141.731 338.5,144.5C 332.217,142.628 325.884,140.961 319.5,139.5C 321.657,126.891 323.49,114.225 325,101.5C 326.058,88.7298 325.391,76.0632 323,63.5C 320.39,47.0963 311.89,35.0963 297.5,27.5 Z"/></g>
<g><path style="opacity:0.612" fill="#12343c" d="M 175.5,98.5 C 175.262,100.404 174.262,101.738 172.5,102.5C 172.738,100.596 173.738,99.2623 175.5,98.5 Z"/></g>
<g><path style="opacity:0.02" fill="#0e2327" d="M 207.5,101.5 C 208.906,101.973 209.573,102.973 209.5,104.5C 208.094,104.027 207.427,103.027 207.5,101.5 Z"/></g>
<g><path style="opacity:0.216" fill="#021216" d="M 172.5,102.5 C 172.167,103.5 171.5,104.167 170.5,104.5C 170.5,103.167 171.167,102.5 172.5,102.5 Z"/></g>
<g><path style="opacity:0.188" fill="#0b1b1d" d="M 170.5,104.5 C 169.92,106.749 168.587,108.415 166.5,109.5C 167.08,107.251 168.413,105.585 170.5,104.5 Z"/></g>
<g><path style="opacity:0.024" fill="#0f2125" d="M 212.5,107.5 C 213.906,107.973 214.573,108.973 214.5,110.5C 213.094,110.027 212.427,109.027 212.5,107.5 Z"/></g>
<g><path style="opacity:0.016" fill="#0d1b1f" d="M 216.5,112.5 C 217.906,112.973 218.573,113.973 218.5,115.5C 217.094,115.027 216.427,114.027 216.5,112.5 Z"/></g>
<g><path style="opacity:0.035" fill="#0c1b1e" d="M 78.5,69.5 C 76.8042,92.8171 78.8042,115.817 84.5,138.5C 82.5,138.833 80.5,139.167 78.5,139.5C 80.2297,138.621 81.563,137.288 82.5,135.5C 77.3962,115.355 75.5629,94.6886 77,73.5C 77.21,71.9419 77.71,70.6085 78.5,69.5 Z"/></g>
<g><path style="opacity:0.408" fill="#103c43" d="M 165.5,111.5 C 164.92,113.749 163.587,115.415 161.5,116.5C 162.08,114.251 163.413,112.585 165.5,111.5 Z"/></g>
<g><path style="opacity:0.584" fill="#123f49" d="M 161.5,116.5 C 161.573,118.027 160.906,119.027 159.5,119.5C 159.427,117.973 160.094,116.973 161.5,116.5 Z"/></g>
<g><path style="opacity:0.039" fill="#0d1e24" d="M 220.5,117.5 C 221.906,117.973 222.573,118.973 222.5,120.5C 221.094,120.027 220.427,119.027 220.5,117.5 Z"/></g>
<g><path style="opacity:0.035" fill="#0a171a" d="M 220.5,77.5 C 219.542,78.9616 218.376,80.2949 217,81.5C 216.333,82.5 216.333,83.5 217,84.5C 228.069,97.0659 238.569,110.066 248.5,123.5C 259.171,125.028 269.837,127.028 280.5,129.5C 269.842,128.335 259.175,127.168 248.5,126C 238.092,111.588 226.925,97.7546 215,84.5C 215.063,80.921 216.896,78.5877 220.5,77.5 Z"/></g>
<g><path style="opacity:0.984" fill="#13545e" d="M 159.5,119.5 C 159.262,121.404 158.262,122.738 156.5,123.5C 156.738,121.596 157.738,120.262 159.5,119.5 Z"/></g>
<g><path style="opacity:0.045" fill="#030b0d" d="M 202.5,96.5 C 195.032,104.808 187.698,113.308 180.5,122C 187.5,122.167 194.5,122.333 201.5,122.5C 208.867,122.497 215.867,121.83 222.5,120.5C 223.5,120.833 224.167,121.5 224.5,122.5C 209.342,123.496 194.009,123.83 178.5,123.5C 185.388,113.604 193.054,104.271 201.5,95.5C 202.107,95.6236 202.44,95.9569 202.5,96.5 Z"/></g>
<g><path style="opacity:1" fill="#17a1b8" d="M 224.5,122.5 C 225.043,122.56 225.376,122.893 225.5,123.5C 209.672,124.827 194.005,124.827 178.5,123.5C 194.009,123.83 209.342,123.496 224.5,122.5 Z"/></g>
<g><path style="opacity:0.541" fill="#0d2c32" d="M 155.5,124.5 C 155.389,125.117 155.056,125.617 154.5,126C 150.848,126.499 147.182,126.665 143.5,126.5C 147.316,125.518 151.316,124.851 155.5,124.5 Z"/></g>
<g><path style="opacity:0.137" fill="#0b1a1d" d="M 303.5,126.5 C 303.662,128.527 303.495,130.527 303,132.5C 301.938,133.097 300.772,133.43 299.5,133.5C 292.967,132.472 286.634,131.139 280.5,129.5C 286.858,129.863 293.358,130.863 300,132.5C 301.749,130.777 302.916,128.777 303.5,126.5 Z"/></g>
<g><path style="opacity:0.335" fill="#05343c" d="M 175.5,141.5 C 183.326,140.834 191.326,140.5 199.5,140.5C 212.697,140.374 225.697,141.041 238.5,142.5C 237.883,142.611 237.383,142.944 237,143.5C 218.268,141.732 199.434,141.065 180.5,141.5C 178.833,141.5 177.167,141.5 175.5,141.5 Z"/></g>
<g><path style="opacity:0.031" fill="#0c1f21" d="M 238.5,142.5 C 239.906,142.973 240.573,143.973 240.5,145.5C 239.094,145.027 238.427,144.027 238.5,142.5 Z"/></g>
<g><path style="opacity:0.037" fill="#0d1f23" d="M 138.5,150.5 C 138.33,149.178 138.663,148.011 139.5,147C 138.975,146.308 138.308,145.808 137.5,145.5C 132.959,146.984 128.292,147.651 123.5,147.5C 129.561,145.45 135.894,144.617 142.5,145C 141.023,146.812 139.69,148.645 138.5,150.5 Z"/></g>
<g><path style="opacity:0.365" fill="#0b252a" d="M 338.5,144.5 C 340.553,144.402 342.22,145.069 343.5,146.5C 341.447,146.598 339.78,145.931 338.5,144.5 Z"/></g>
<g><path style="opacity:0.996" fill="#155760" d="M 61.5,145.5 C 60.3646,147.213 58.698,147.88 56.5,147.5C 57.9303,146.463 59.597,145.796 61.5,145.5 Z"/></g>
<g><path style="opacity:0.027" fill="#0d1e22" d="M 240.5,145.5 C 241.906,145.973 242.573,146.973 242.5,148.5C 241.094,148.027 240.427,147.027 240.5,145.5 Z"/></g>
<g><path style="opacity:0.129" fill="#0a1a1c" d="M 56.5,147.5 C 55.2196,148.931 53.5529,149.598 51.5,149.5C 52.7804,148.069 54.4471,147.402 56.5,147.5 Z"/></g>
<g><path style="opacity:0.302" fill="#092225" d="M 343.5,146.5 C 345.553,146.402 347.22,147.069 348.5,148.5C 346.447,148.598 344.78,147.931 343.5,146.5 Z"/></g>
<g><path style="opacity:0.231" fill="#0c1e22" d="M 348.5,148.5 C 355.086,150.46 361.086,153.46 366.5,157.5C 360.182,155.008 354.182,152.008 348.5,148.5 Z"/></g>
<g><path style="opacity:0.051" fill="#051315" d="M 290.5,149.5 C 292.861,149.674 295.194,150.007 297.5,150.5C 297.405,152.786 296.738,154.786 295.5,156.5C 295.983,152.487 294.316,150.154 290.5,149.5 Z"/></g>
<g><path style="opacity:0.992" fill="#186f7f" d="M 138.5,150.5 C 138.408,152.848 137.408,154.514 135.5,155.5C 135.75,153.326 136.75,151.659 138.5,150.5 Z"/></g>
<g><path style="opacity:0.004" fill="#071416" d="M 245.5,153.5 C 246.906,153.973 247.573,154.973 247.5,156.5C 246.094,156.027 245.427,155.027 245.5,153.5 Z"/></g>
<g><path style="opacity:0.749" fill="#0b3943" d="M 41.5,154.5 C 41.0269,155.906 40.0269,156.573 38.5,156.5C 38.9731,155.094 39.9731,154.427 41.5,154.5 Z"/></g>
<g><path style="opacity:0.012" fill="#08181a" d="M 92.5,166.5 C 90.5968,163.47 89.2635,160.137 88.5,156.5C 86.1944,156.993 83.861,157.326 81.5,157.5C 83.9151,155.621 86.5818,155.287 89.5,156.5C 90.9094,159.727 91.9094,163.06 92.5,166.5 Z"/></g>
<g><path style="opacity:0.451" fill="#0d363e" d="M 135.5,155.5 C 135.573,157.027 134.906,158.027 133.5,158.5C 133.427,156.973 134.094,155.973 135.5,155.5 Z"/></g>
<g><path style="opacity:0.012" fill="#0b1a1d" d="M 247.5,156.5 C 248.906,156.973 249.573,157.973 249.5,159.5C 248.094,159.027 247.427,158.027 247.5,156.5 Z"/></g>
<g><path style="opacity:0.094" fill="#071619" d="M 321.5,157.5 C 323.553,157.402 325.22,158.069 326.5,159.5C 324.447,159.598 322.78,158.931 321.5,157.5 Z"/></g>
<g><path style="opacity:0.224" fill="#0c1d20" d="M 366.5,157.5 C 368.674,157.75 370.341,158.75 371.5,160.5C 369.326,160.25 367.659,159.25 366.5,157.5 Z"/></g>
<g><path style="opacity:0.627" fill="#0d2f34" d="M 34.5,158.5 C 34.0269,159.906 33.0269,160.573 31.5,160.5C 31.9731,159.094 32.9731,158.427 34.5,158.5 Z"/></g>
<g><path style="opacity:0.039" fill="#081619" d="M 78.5,158.5 C 75.2034,160.601 71.5368,161.935 67.5,162.5C 70.7966,160.399 74.4632,159.065 78.5,158.5 Z"/></g>
<g><path style="opacity:0.018" fill="#061315" d="M 279.5,147.5 C 274.449,146.904 269.449,146.904 264.5,147.5C 271.333,159.167 278.167,170.833 285,182.5C 286.372,178.186 288.205,174.186 290.5,170.5C 289.457,175.647 287.457,180.314 284.5,184.5C 277.085,171.335 269.419,158.335 261.5,145.5C 262.167,145.167 262.833,144.833 263.5,144.5C 269.003,145.328 274.337,146.328 279.5,147.5 Z"/></g>
<g><path style="opacity:0.033" fill="#071417" d="M 294.5,159.5 C 294.267,162.542 293.267,165.208 291.5,167.5C 291.733,164.458 292.733,161.792 294.5,159.5 Z"/></g>
<g><path style="opacity:0.004" fill="#091619" d="M 371.5,160.5 C 374.198,160.845 376.198,162.178 377.5,164.5C 375.147,163.66 373.147,162.326 371.5,160.5 Z"/></g>
<g><path style="opacity:0.392" fill="#0c2f37" d="M 132.5,160.5 C 132.573,162.027 131.906,163.027 130.5,163.5C 130.427,161.973 131.094,160.973 132.5,160.5 Z"/></g>
<g><path style="opacity:0.004" fill="#081517" d="M 250.5,161.5 C 251.906,161.973 252.573,162.973 252.5,164.5C 251.094,164.027 250.427,163.027 250.5,161.5 Z"/></g>
<g><path style="opacity:0.133" fill="#071619" d="M 332.5,161.5 C 334.553,161.402 336.22,162.069 337.5,163.5C 335.447,163.598 333.78,162.931 332.5,161.5 Z"/></g>
<g><path style="opacity:0.153" fill="#0b1b1f" d="M 67.5,162.5 C 66.2196,163.931 64.5529,164.598 62.5,164.5C 63.7804,163.069 65.4471,162.402 67.5,162.5 Z"/></g>
<g><path style="opacity:0.922" fill="#144550" d="M 29.5,161.5 C 28.4154,163.587 26.7488,164.92 24.5,165.5C 25.5846,163.413 27.2512,162.08 29.5,161.5 Z"/></g>
<g><path style="opacity:0.184" fill="#0a1c1f" d="M 337.5,163.5 C 339.553,163.402 341.22,164.069 342.5,165.5C 340.447,165.598 338.78,164.931 337.5,163.5 Z"/></g>
<g><path style="opacity:0.004" fill="#0b191c" d="M 377.5,164.5 C 379.404,164.738 380.738,165.738 381.5,167.5C 379.596,167.262 378.262,166.262 377.5,164.5 Z"/></g>
<g><path style="opacity:0.753" fill="#113e4a" d="M 24.5,165.5 C 24.0269,166.906 23.0269,167.573 21.5,167.5C 21.9731,166.094 22.9731,165.427 24.5,165.5 Z"/></g>
<g><path style="opacity:0.22" fill="#0c2228" d="M 252.5,164.5 C 253.906,164.973 254.573,165.973 254.5,167.5C 253.094,167.027 252.427,166.027 252.5,164.5 Z"/></g>
<g><path style="opacity:0.212" fill="#0c1b1e" d="M 60.5,165.5 C 56.8178,168.008 52.8178,170.008 48.5,171.5C 51.9136,168.46 55.9136,166.46 60.5,165.5 Z"/></g>
<g><path style="opacity:0.004" fill="#0d1d21" d="M 381.5,167.5 C 384.427,168.757 386.761,170.757 388.5,173.5C 385.573,172.243 383.239,170.243 381.5,167.5 Z"/></g>
<g><path style="opacity:0.051" fill="#071718" d="M 92.5,166.5 C 93.7384,168.214 94.405,170.214 94.5,172.5C 92.9261,170.898 92.2594,168.898 92.5,166.5 Z"/></g>
<g><path style="opacity:0.044" fill="#061113" d="M 205.5,169.5 C 201.131,169.467 196.798,169.8 192.5,170.5C 194.848,169.048 197.514,168.382 200.5,168.5C 202.369,168.507 204.036,168.84 205.5,169.5 Z"/></g>
<g><path style="opacity:0.988" fill="#155968" d="M 21.5,167.5 C 21.1436,169.19 20.1436,170.19 18.5,170.5C 18.8564,168.81 19.8564,167.81 21.5,167.5 Z"/></g>
<g><path style="opacity:0.38" fill="#0c3037" d="M 128.5,167.5 C 128.573,169.027 127.906,170.027 126.5,170.5C 126.427,168.973 127.094,167.973 128.5,167.5 Z"/></g>
<g><path style="opacity:0.616" fill="#0c272d" d="M 211.5,170.5 C 209.585,170.784 207.919,170.451 206.5,169.5C 206.435,169.062 206.601,168.728 207,168.5C 208.622,169.099 210.122,169.766 211.5,170.5 Z"/></g>
<g><path style="opacity:1" fill="#04d6fb" d="M 205.5,169.5 C 205.833,169.5 206.167,169.5 206.5,169.5C 207.919,170.451 209.585,170.784 211.5,170.5C 214.979,172.403 218.646,174.07 222.5,175.5C 236.698,187.265 240.864,201.932 235,219.5C 232.059,224.933 228.559,229.933 224.5,234.5C 222.973,234.427 221.973,235.094 221.5,236.5C 219.181,236.992 217.181,237.992 215.5,239.5C 213.214,239.595 211.214,240.262 209.5,241.5C 209.167,241.5 208.833,241.5 208.5,241.5C 202.471,241.575 196.471,241.241 190.5,240.5C 188.447,240.598 186.78,239.931 185.5,238.5C 185.027,237.094 184.027,236.427 182.5,236.5C 182.027,235.094 181.027,234.427 179.5,234.5C 177.5,231.833 175.167,229.5 172.5,227.5C 171.833,227.5 171.5,227.167 171.5,226.5C 165.076,214.933 164.076,202.933 168.5,190.5C 169.674,189.486 170.34,188.153 170.5,186.5C 172.587,185.415 173.92,183.749 174.5,181.5C 175.5,181.167 176.167,180.5 176.5,179.5C 177.5,179.167 178.167,178.5 178.5,177.5C 180.404,177.262 181.738,176.262 182.5,174.5C 182.842,173.662 183.508,173.328 184.5,173.5C 186.153,173.34 187.486,172.674 188.5,171.5C 189.568,170.566 190.901,170.232 192.5,170.5C 196.798,169.8 201.131,169.467 205.5,169.5 Z"/></g>
<g><path style="opacity:0.188" fill="#0c1a20" d="M 211.5,170.5 C 215.836,170.837 219.503,172.504 222.5,175.5C 218.646,174.07 214.979,172.403 211.5,170.5 Z"/></g>
<g><path style="opacity:0.463" fill="#0c1e25" d="M 188.5,171.5 C 187.486,172.674 186.153,173.34 184.5,173.5C 185.287,171.896 186.62,171.229 188.5,171.5 Z"/></g>
<g><path style="opacity:0.153" fill="#0a181b" d="M 46.5,172.5 C 45.3406,174.25 43.674,175.25 41.5,175.5C 42.6594,173.75 44.326,172.75 46.5,172.5 Z"/></g>
<g><path style="opacity:0.157" fill="#0c1a1d" d="M 256.5,171.5 C 257.906,171.973 258.573,172.973 258.5,174.5C 257.094,174.027 256.427,173.027 256.5,171.5 Z"/></g>
<g><path style="opacity:0.004" fill="#000304" d="M 388.5,173.5 C 390.5,173.5 391.5,174.5 391.5,176.5C 390.167,175.833 389.167,174.833 388.5,173.5 Z"/></g>
<g><path style="opacity:0.753" fill="#14424a" d="M 18.5,170.5 C 16.1667,173.5 13.5,176.167 10.5,178.5C 12.1667,174.833 14.8333,172.167 18.5,170.5 Z"/></g>
<g><path style="opacity:0.025" fill="#0b181b" d="M 94.5,172.5 C 95.9313,173.78 96.5979,175.447 96.5,177.5C 94.7868,176.365 94.1201,174.698 94.5,172.5 Z"/></g>
<g><path style="opacity:0.376" fill="#092c31" d="M 358.5,173.5 C 360.027,173.427 361.027,174.094 361.5,175.5C 359.973,175.573 358.973,174.906 358.5,173.5 Z"/></g>
<g><path style="opacity:0.533" fill="#0f2f35" d="M 182.5,174.5 C 181.738,176.262 180.404,177.262 178.5,177.5C 179.262,175.738 180.596,174.738 182.5,174.5 Z"/></g>
<g><path style="opacity:0.004" fill="#041012" d="M 41.5,175.5 C 41.0269,176.906 40.0269,177.573 38.5,177.5C 38.9731,176.094 39.9731,175.427 41.5,175.5 Z"/></g>
<g><path style="opacity:0.298" fill="#0b242a" d="M 124.5,174.5 C 124.573,176.027 123.906,177.027 122.5,177.5C 122.427,175.973 123.094,174.973 124.5,174.5 Z"/></g>
<g><path style="opacity:0.322" fill="#0a2328" d="M 361.5,175.5 C 363.027,175.427 364.027,176.094 364.5,177.5C 362.973,177.573 361.973,176.906 361.5,175.5 Z"/></g>
<g><path style="opacity:0.286" fill="#05181b" d="M 178.5,177.5 C 178.167,178.5 177.5,179.167 176.5,179.5C 176.5,178.167 177.167,177.5 178.5,177.5 Z"/></g>
<g><path style="opacity:0.004" fill="#040f12" d="M 38.5,177.5 C 37.7377,179.262 36.4044,180.262 34.5,180.5C 35.2623,178.738 36.5956,177.738 38.5,177.5 Z"/></g>
<g><path style="opacity:0.018" fill="#091618" d="M 317.5,156.5 C 316.25,156.577 315.417,157.244 315,158.5C 309.942,174.614 303.775,190.281 296.5,205.5C 304.077,221.396 310.577,237.729 316,254.5C 318.027,254.986 320.193,254.986 322.5,254.5C 320.162,256.04 317.495,256.706 314.5,256.5C 309.245,238.983 302.578,221.983 294.5,205.5C 302.418,189.41 308.751,172.744 313.5,155.5C 315.099,155.232 316.432,155.566 317.5,156.5 Z"/></g>
<g><path style="opacity:0.373" fill="#0d262e" d="M 364.5,177.5 C 366.027,177.427 367.027,178.094 367.5,179.5C 365.973,179.573 364.973,178.906 364.5,177.5 Z"/></g>
<g><path style="opacity:0.216" fill="#031114" d="M 9.5,179.5 C 9.16667,180.5 8.5,181.167 7.5,181.5C 7.5,180.167 8.16667,179.5 9.5,179.5 Z"/></g>
<g><path style="opacity:0.035" fill="#061315" d="M 123.5,147.5 C 118.251,148.887 112.918,150.387 107.5,152C 111.109,161.952 114.943,171.786 119,181.5C 119.708,180.619 120.542,179.953 121.5,179.5C 120.955,181.593 120.122,183.593 119,185.5C 113.761,174.956 109.595,163.956 106.5,152.5C 106.608,151.558 106.941,150.725 107.5,150C 112.792,148.84 118.125,148.007 123.5,147.5 Z"/></g>
<g><path style="opacity:0.369" fill="#081e24" d="M 176.5,179.5 C 176.167,180.5 175.5,181.167 174.5,181.5C 174.5,180.167 175.167,179.5 176.5,179.5 Z"/></g>
<g><path style="opacity:0.161" fill="#0a1a1d" d="M 260.5,178.5 C 261.906,178.973 262.573,179.973 262.5,181.5C 261.094,181.027 260.427,180.027 260.5,178.5 Z"/></g>
<g><path style="opacity:0.553" fill="#10363c" d="M 367.5,179.5 C 369.404,179.738 370.738,180.738 371.5,182.5C 369.596,182.262 368.262,181.262 367.5,179.5 Z"/></g>
<g><path style="opacity:1" fill="#1e8395" d="M 29.5,183.5 C 29.5,183.833 29.5,184.167 29.5,184.5C 28.5,186.167 27.1667,187.5 25.5,188.5C 26.0604,186.199 26.5604,183.866 27,181.5C 27.9947,182.066 28.828,182.733 29.5,183.5 Z"/></g>
<g><path style="opacity:0.012" fill="#0e2124" d="M 391.5,176.5 C 397.314,181.474 401.648,187.474 404.5,194.5C 404.5,199.5 404.5,204.5 404.5,209.5C 404.167,209.5 403.833,209.5 403.5,209.5C 403.666,205.154 403.499,200.821 403,196.5C 399.915,189.321 396.082,182.654 391.5,176.5 Z"/></g>
<g><path style="opacity:0.976" fill="#15434d" d="M 371.5,182.5 C 375.167,184.167 377.833,186.833 379.5,190.5C 376.5,188.167 373.833,185.5 371.5,182.5 Z"/></g>
<g><path style="opacity:0.004" fill="#020b0d" d="M 34.5,180.5 C 33.4154,182.587 31.7488,183.92 29.5,184.5C 29.5,184.167 29.5,183.833 29.5,183.5C 30.922,182.075 32.5887,181.075 34.5,180.5 Z"/></g>
<g><path style="opacity:0.494" fill="#0f3a41" d="M 6.5,183.5 C 6.57298,185.027 5.90632,186.027 4.5,186.5C 4.42702,184.973 5.09368,183.973 6.5,183.5 Z"/></g>
<g><path style="opacity:0.29" fill="#0e3137" d="M 174.5,181.5 C 173.92,183.749 172.587,185.415 170.5,186.5C 171.08,184.251 172.413,182.585 174.5,181.5 Z"/></g>
<g><path style="opacity:0.176" fill="#091719" d="M 96.5,177.5 C 98.871,182.265 100.871,187.265 102.5,192.5C 99.3475,188.059 97.3475,183.059 96.5,177.5 Z"/></g>
<g><path style="opacity:0.039" fill="#061214" d="M 222.5,175.5 C 233.454,182.561 239.12,192.728 239.5,206C 239.301,218.24 234.301,227.74 224.5,234.5C 228.559,229.933 232.059,224.933 235,219.5C 240.864,201.932 236.698,187.265 222.5,175.5 Z"/></g>
<g><path style="opacity:0.286" fill="#0a1f25" d="M 4.5,186.5 C 4.57298,188.027 3.90632,189.027 2.5,189.5C 2.42702,187.973 3.09368,186.973 4.5,186.5 Z"/></g>
<g><path style="opacity:0.102" fill="#0a191c" d="M 170.5,186.5 C 170.34,188.153 169.674,189.486 168.5,190.5C 168.229,188.62 168.896,187.287 170.5,186.5 Z"/></g>
<g><path style="opacity:0.153" fill="#0b181b" d="M 266.5,189.5 C 268.25,190.659 269.25,192.326 269.5,194.5C 267.75,193.341 266.75,191.674 266.5,189.5 Z"/></g>
<g><path style="opacity:0.122" fill="#08171a" d="M 2.5,189.5 C 2.59794,191.553 1.93127,193.22 0.5,194.5C 0.402065,192.447 1.06873,190.78 2.5,189.5 Z"/></g>
<g><path style="opacity:0.008" fill="#0a191b" d="M 380.5,191.5 C 381.906,191.973 382.573,192.973 382.5,194.5C 381.094,194.027 380.427,193.027 380.5,191.5 Z"/></g>
<g><path style="opacity:0.349" fill="#0b272d" d="M 102.5,192.5 C 103.931,193.78 104.598,195.447 104.5,197.5C 103.069,196.22 102.402,194.553 102.5,192.5 Z"/></g>
<g><path style="opacity:0.043" fill="#0a181b" d="M 382.5,194.5 C 383.906,194.973 384.573,195.973 384.5,197.5C 383.094,197.027 382.427,196.027 382.5,194.5 Z"/></g>
<g><path style="opacity:0.216" fill="#0a1c20" d="M 104.5,197.5 C 105.674,198.514 106.34,199.847 106.5,201.5C 104.896,200.713 104.229,199.38 104.5,197.5 Z"/></g>
<g><path style="opacity:0.032" fill="#061315" d="M 384.5,197.5 C 386.033,199.634 386.7,202.134 386.5,205C 386.494,207.033 386.161,208.866 385.5,210.5C 385.628,206.119 385.295,201.785 384.5,197.5 Z"/></g>
<g><path style="opacity:0.031" fill="#061316" d="M 273.5,202.5 C 276.167,204.833 276.167,207.167 273.5,209.5C 273.5,207.167 273.5,204.833 273.5,202.5 Z"/></g>
<g><path style="opacity:0.984" fill="#154b57" d="M 107.5,204.5 C 108.139,205.097 108.472,205.93 108.5,207C 108.613,208.699 107.947,209.866 106.5,210.5C 106.833,208.5 107.167,206.5 107.5,204.5 Z"/></g>
<g><path style="opacity:0.278" fill="#0c1b1f" d="M 168.5,190.5 C 164.076,202.933 165.076,214.933 171.5,226.5C 165.274,218.253 163.107,208.92 165,198.5C 165.322,195.334 166.489,192.667 168.5,190.5 Z"/></g>
<g><path style="opacity:0.188" fill="#08171a" d="M 104.5,214.5 C 104.293,217.241 103.293,219.574 101.5,221.5C 101.707,218.759 102.707,216.426 104.5,214.5 Z"/></g>
<g><path style="opacity:0.022" fill="#051112" d="M 0.5,216.5 C 1.53747,217.93 2.20414,219.597 2.5,221.5C 0.786787,220.365 0.120121,218.698 0.5,216.5 Z"/></g>
<g><path style="opacity:0.502" fill="#0c2f36" d="M 382.5,217.5 C 382.262,219.404 381.262,220.738 379.5,221.5C 379.738,219.596 380.738,218.262 382.5,217.5 Z"/></g>
<g><path style="opacity:0.2" fill="#0b1d20" d="M 269.5,217.5 C 268.921,220.331 267.588,222.664 265.5,224.5C 266.079,221.669 267.412,219.336 269.5,217.5 Z"/></g>
<g><path style="opacity:0.22" fill="#071416" d="M 25.5,188.5 C 23.0894,192.318 20.9228,196.318 19,200.5C 18.5779,202.355 18.0779,204.189 17.5,206C 18.7176,211.268 20.8843,216.101 24,220.5C 31.0686,228.252 38.9019,234.919 47.5,240.5C 35.0047,234.509 25.1714,225.509 18,213.5C 14.5681,203.302 17.0681,194.968 25.5,188.5 Z"/></g>
<g><path style="opacity:0.125" fill="#061416" d="M 101.5,221.5 C 100.737,225.137 99.4032,228.47 97.5,231.5C 97.8723,227.703 99.2057,224.37 101.5,221.5 Z"/></g>
<g><path style="opacity:0.847" fill="#195864" d="M 379.5,221.5 C 378.167,224.833 375.833,227.167 372.5,228.5C 374.5,225.833 376.833,223.5 379.5,221.5 Z"/></g>
<g><path style="opacity:0.024" fill="#091517" d="M 403.5,209.5 C 403.833,209.5 404.167,209.5 404.5,209.5C 404.5,211.833 404.5,214.167 404.5,216.5C 399.801,228.206 392.134,237.539 381.5,244.5C 386.829,239.003 391.996,233.336 397,227.5C 400.596,221.982 402.763,215.982 403.5,209.5 Z"/></g>
<g><path style="opacity:0.029" fill="#0b181b" d="M 121.5,232.5 C 120.542,232.047 119.708,231.381 119,230.5C 114.48,240.226 110.646,250.226 107.5,260.5C 116.601,263.387 125.934,265.387 135.5,266.5C 136.833,266.167 138.167,265.833 139.5,265.5C 138.873,264.583 138.539,263.583 138.5,262.5C 140.054,263.914 141.388,265.581 142.5,267.5C 130.792,267.282 119.125,265.782 107.5,263C 106.572,262.612 105.905,261.945 105.5,261C 109.107,250.178 113.107,239.512 117.5,229C 117.85,227.743 118.517,227.409 119.5,228C 120.582,229.33 121.249,230.83 121.5,232.5 Z"/></g>
<g><path style="opacity:0.02" fill="#10292f" d="M 172.5,227.5 C 175.167,229.5 177.5,231.833 179.5,234.5C 176.167,233.167 173.833,230.833 172.5,227.5 Z"/></g>
<g><path style="opacity:0.455" fill="#10343b" d="M 372.5,228.5 C 371.415,230.587 369.749,231.92 367.5,232.5C 368.585,230.413 370.251,229.08 372.5,228.5 Z"/></g>
<g><path style="opacity:0.075" fill="#0f272a" d="M 7.5,229.5 C 8.90632,229.973 9.57298,230.973 9.5,232.5C 8.09368,232.027 7.42702,231.027 7.5,229.5 Z"/></g>
<g><path style="opacity:0.196" fill="#0a1a1c" d="M 262.5,230.5 C 262.25,232.674 261.25,234.341 259.5,235.5C 259.75,233.326 260.75,231.659 262.5,230.5 Z"/></g>
<g><path style="opacity:0.678" fill="#0f363c" d="M 367.5,232.5 C 367.027,233.906 366.027,234.573 364.5,234.5C 364.973,233.094 365.973,232.427 367.5,232.5 Z"/></g>
<g><path style="opacity:0.604" fill="#144951" d="M 179.5,234.5 C 181.027,234.427 182.027,235.094 182.5,236.5C 180.973,236.573 179.973,235.906 179.5,234.5 Z"/></g>
<g><path style="opacity:0.004" fill="#041011" d="M 224.5,234.5 C 224.027,235.906 223.027,236.573 221.5,236.5C 221.973,235.094 222.973,234.427 224.5,234.5 Z"/></g>
<g><path style="opacity:0.592" fill="#0d2a32" d="M 364.5,234.5 C 364.027,235.906 363.027,236.573 361.5,236.5C 361.973,235.094 362.973,234.427 364.5,234.5 Z"/></g>
<g><path style="opacity:0.137" fill="#09181b" d="M 96.5,234.5 C 96.5979,236.553 95.9313,238.22 94.5,239.5C 94.4021,237.447 95.0687,235.78 96.5,234.5 Z"/></g>
<g><path style="opacity:0.388" fill="#0a323b" d="M 182.5,236.5 C 184.027,236.427 185.027,237.094 185.5,238.5C 183.973,238.573 182.973,237.906 182.5,236.5 Z"/></g>
<g><path style="opacity:0.173" fill="#0b1a1e" d="M 221.5,236.5 C 220.089,238.539 218.089,239.539 215.5,239.5C 217.181,237.992 219.181,236.992 221.5,236.5 Z"/></g>
<g><path style="opacity:0.671" fill="#0d333a" d="M 361.5,236.5 C 361.027,237.906 360.027,238.573 358.5,238.5C 358.973,237.094 359.973,236.427 361.5,236.5 Z"/></g>
<g><path style="opacity:0.049" fill="#081619" d="M 215.5,239.5 C 213.898,241.074 211.898,241.741 209.5,241.5C 211.214,240.262 213.214,239.595 215.5,239.5 Z"/></g>
<g><path style="opacity:0.033" fill="#071417" d="M 94.5,239.5 C 94.405,241.786 93.7384,243.786 92.5,245.5C 92.2594,243.102 92.9261,241.102 94.5,239.5 Z"/></g>
<g><path style="opacity:0.037" fill="#0f2327" d="M 190.5,240.5 C 196.471,241.241 202.471,241.575 208.5,241.5C 206.359,242.163 204.025,242.497 201.5,242.5C 197.553,242.637 193.886,241.97 190.5,240.5 Z"/></g>
<g><path style="opacity:0.306" fill="#092227" d="M 257.5,239.5 C 257.573,241.027 256.906,242.027 255.5,242.5C 255.427,240.973 256.094,239.973 257.5,239.5 Z"/></g>
<g><path style="opacity:0.025" fill="#081517" d="M 294.5,250.5 C 291.383,243.59 288.216,236.59 285,229.5C 278.539,241.595 271.705,253.428 264.5,265C 264.833,265.5 265.167,266 265.5,266.5C 274.416,264.651 283.416,263.317 292.5,262.5C 282.448,265.64 272.115,266.974 261.5,266.5C 269.585,253.331 277.419,239.998 285,226.5C 288.999,234.165 292.165,242.165 294.5,250.5 Z"/></g>
<g><path style="opacity:0.608" fill="#0c2a33" d="M 354.5,240.5 C 354.027,241.906 353.027,242.573 351.5,242.5C 351.973,241.094 352.973,240.427 354.5,240.5 Z"/></g>
<g><path style="opacity:0.894" fill="#154853" d="M 20.5,243.5 C 22.4044,243.738 23.7377,244.738 24.5,246.5C 22.5956,246.262 21.2623,245.262 20.5,243.5 Z"/></g>
<g><path style="opacity:0.996" fill="#195f6f" d="M 127.5,243.5 C 129.824,243.877 130.491,244.877 129.5,246.5C 128.094,246.027 127.427,245.027 127.5,243.5 Z"/></g>
<g><path style="opacity:0.165" fill="#0c1d20" d="M 347.5,244.5 C 345.574,246.293 343.241,247.293 340.5,247.5C 342.426,245.707 344.759,244.707 347.5,244.5 Z"/></g>
<g><path style="opacity:0.153" fill="#0c1b1e" d="M 47.5,240.5 C 53.1511,242.659 58.4844,245.326 63.5,248.5C 57.5807,246.874 52.2474,244.207 47.5,240.5 Z"/></g>
<g><path style="opacity:0.008" fill="#071214" d="M 381.5,244.5 C 380.738,246.262 379.404,247.262 377.5,247.5C 378.262,245.738 379.596,244.738 381.5,244.5 Z"/></g>
<g><path style="opacity:0.271" fill="#0a1c22" d="M 254.5,244.5 C 254.573,246.027 253.906,247.027 252.5,247.5C 252.427,245.973 253.094,244.973 254.5,244.5 Z"/></g>
<g><path style="opacity:0.8" fill="#155460" d="M 24.5,246.5 C 26.4044,246.738 27.7377,247.738 28.5,249.5C 26.5956,249.262 25.2623,248.262 24.5,246.5 Z"/></g>
<g><path style="opacity:0.008" fill="#071416" d="M 377.5,247.5 C 376.198,249.822 374.198,251.155 371.5,251.5C 373.147,249.674 375.147,248.34 377.5,247.5 Z"/></g>
<g><path style="opacity:0.29" fill="#091e22" d="M 338.5,248.5 C 337.22,249.931 335.553,250.598 333.5,250.5C 334.78,249.069 336.447,248.402 338.5,248.5 Z"/></g>
<g><path style="opacity:0.561" fill="#10464e" d="M 28.5,249.5 C 30.0269,249.427 31.0269,250.094 31.5,251.5C 29.9731,251.573 28.9731,250.906 28.5,249.5 Z"/></g>
<g><path style="opacity:0.247" fill="#0a1b21" d="M 65.5,249.5 C 67.5529,249.402 69.2196,250.069 70.5,251.5C 68.4471,251.598 66.7804,250.931 65.5,249.5 Z"/></g>
<g><path style="opacity:0.278" fill="#091f22" d="M 251.5,249.5 C 251.573,251.027 250.906,252.027 249.5,252.5C 249.427,250.973 250.094,249.973 251.5,249.5 Z"/></g>
<g><path style="opacity:0.314" fill="#092027" d="M 333.5,250.5 C 332.22,251.931 330.553,252.598 328.5,252.5C 329.78,251.069 331.447,250.402 333.5,250.5 Z"/></g>
<g><path style="opacity:0.541" fill="#11464c" d="M 31.5,251.5 C 33.0269,251.427 34.0269,252.094 34.5,253.5C 32.9731,253.573 31.9731,252.906 31.5,251.5 Z"/></g>
<g><path style="opacity:0.004" fill="#051314" d="M 371.5,251.5 C 371.027,252.906 370.027,253.573 368.5,253.5C 368.973,252.094 369.973,251.427 371.5,251.5 Z"/></g>
<g><path style="opacity:0.267" fill="#0a1f23" d="M 70.5,251.5 C 73.5418,251.733 76.2084,252.733 78.5,254.5C 75.4582,254.267 72.7916,253.267 70.5,251.5 Z"/></g>
<g><path style="opacity:0.11" fill="#071517" d="M 175.5,141.5 C 177.167,141.5 178.833,141.5 180.5,141.5C 176.018,142.326 171.351,142.826 166.5,143C 152.948,162.592 140.781,183.092 130,204.5C 139.455,227.07 151.288,248.403 165.5,268.5C 189.481,270.999 213.481,271.166 237.5,269C 238.705,267.624 240.038,266.458 241.5,265.5C 241.141,267.371 240.141,268.871 238.5,270C 213.82,271.898 189.154,271.898 164.5,270C 151.277,250.399 139.444,229.899 129,208.5C 128.333,206.833 128.333,205.167 129,203.5C 139.403,182.351 151.069,162.018 164,142.5C 167.73,141.54 171.563,141.207 175.5,141.5 Z"/></g>
<g><path style="opacity:0.408" fill="#0e3439" d="M 34.5,253.5 C 36.0269,253.427 37.0269,254.094 37.5,255.5C 35.9731,255.573 34.9731,254.906 34.5,253.5 Z"/></g>
<g><path style="opacity:0.049" fill="#081619" d="M 92.5,245.5 C 91.5,249.5 90.5,253.5 89.5,257.5C 85.4661,257.483 81.7994,256.483 78.5,254.5C 81.8774,254.959 85.2107,255.626 88.5,256.5C 89.0653,252.463 90.3987,248.797 92.5,245.5 Z"/></g>
<g><path style="opacity:0.153" fill="#0a191c" d="M 368.5,253.5 C 366.664,255.588 364.331,256.921 361.5,257.5C 363.336,255.412 365.669,254.079 368.5,253.5 Z"/></g>
<g><path style="opacity:0.329" fill="#0c272c" d="M 248.5,254.5 C 248.573,256.027 247.906,257.027 246.5,257.5C 246.427,255.973 247.094,254.973 248.5,254.5 Z"/></g>
<g><path style="opacity:0.325" fill="#0b272f" d="M 39.5,256.5 C 41.0269,256.427 42.0269,257.094 42.5,258.5C 40.9731,258.573 39.9731,257.906 39.5,256.5 Z"/></g>
<g><path style="opacity:0.055" fill="#041112" d="M 295.5,253.5 C 296.67,255.65 297.67,257.984 298.5,260.5C 296.827,262.086 294.827,262.753 292.5,262.5C 294.32,261.937 295.653,260.771 296.5,259C 295.767,257.234 295.433,255.401 295.5,253.5 Z"/></g>
<g><path style="opacity:0.282" fill="#091c20" d="M 246.5,257.5 C 246.573,259.027 245.906,260.027 244.5,260.5C 244.427,258.973 245.094,257.973 246.5,257.5 Z"/></g>
<g><path style="opacity:0.231" fill="#08181b" d="M 244.5,260.5 C 244.573,262.027 243.906,263.027 242.5,263.5C 242.427,261.973 243.094,260.973 244.5,260.5 Z"/></g>
<g><path style="opacity:0.235" fill="#0b1d22" d="M 351.5,262.5 C 349.574,264.293 347.241,265.293 344.5,265.5C 346.426,263.707 348.759,262.707 351.5,262.5 Z"/></g>
<g><path style="opacity:0.18" fill="#0b1c21" d="M 344.5,265.5 C 343.22,266.931 341.553,267.598 339.5,267.5C 340.78,266.069 342.447,265.402 344.5,265.5 Z"/></g>
<g><path style="opacity:0.996" fill="#19606e" d="M 62.5,267.5 C 64.698,267.12 66.3646,267.787 67.5,269.5C 65.4471,269.598 63.7804,268.931 62.5,267.5 Z"/></g>
<g><path style="opacity:0.996" fill="#18525f" d="M 67.5,269.5 C 69.698,269.12 71.3646,269.787 72.5,271.5C 70.4471,271.598 68.7804,270.931 67.5,269.5 Z"/></g>
<g><path style="opacity:0.173" fill="#0b1d20" d="M 339.5,267.5 C 337.208,269.267 334.542,270.267 331.5,270.5C 333.792,268.733 336.458,267.733 339.5,267.5 Z"/></g>
<g><path style="opacity:0.235" fill="#0d2226" d="M 331.5,270.5 C 329.786,271.738 327.786,272.405 325.5,272.5C 327.102,270.926 329.102,270.259 331.5,270.5 Z"/></g>
<g><path style="opacity:0.125" fill="#081619" d="M 79.5,273.5 C 81.3797,273.229 82.713,273.896 83.5,275.5C 81.847,275.34 80.5137,274.674 79.5,273.5 Z"/></g>
<g><path style="opacity:0.025" fill="#091719" d="M 105.5,280.5 C 107.735,280.205 109.735,280.539 111.5,281.5C 109.444,282.161 107.444,281.828 105.5,280.5 Z"/></g>
<g><path style="opacity:0.322" fill="#0c292e" d="M 298.5,279.5 C 291.448,281.708 284.115,283.042 276.5,283.5C 283.595,281.55 290.929,280.216 298.5,279.5 Z"/></g>
<g><path style="opacity:0.431" fill="#0f282e" d="M 269.5,284.5 C 271.607,283.532 273.941,283.198 276.5,283.5C 274.294,284.972 271.961,285.305 269.5,284.5 Z"/></g>
<g><path style="opacity:0.31" fill="#0a1d22" d="M 123.5,283.5 C 128.414,283.362 133.081,284.028 137.5,285.5C 136.883,285.611 136.383,285.944 136,286.5C 131.689,285.726 127.523,284.726 123.5,283.5 Z"/></g>
<g><path style="opacity:0.021" fill="#0b181c" d="M 83.5,276.5 C 81.8303,285.188 80.1636,293.855 78.5,302.5C 77.9569,302.44 77.6236,302.107 77.5,301.5C 78.4997,292.813 80.4997,284.48 83.5,276.5 Z"/></g>
<g><path style="opacity:0.2" fill="#0b1b1f" d="M 298.5,279.5 C 300.546,278.035 302.38,278.368 304,280.5C 306.386,290.034 307.886,299.701 308.5,309.5C 308.5,310.5 308.5,311.5 308.5,312.5C 306.842,301.566 304.842,290.566 302.5,279.5C 301.167,279.5 299.833,279.5 298.5,279.5 Z"/></g>
<g><path style="opacity:1" fill="#1d8595" d="M 157.5,290.5 C 160.352,290.936 162.019,292.603 162.5,295.5C 162.167,295.5 161.833,295.5 161.5,295.5C 159.937,294.055 158.604,292.389 157.5,290.5 Z"/></g>
<g><path style="opacity:0.024" fill="#031013" d="M 222.5,292.5 C 222.414,291.504 222.748,290.671 223.5,290C 209.5,289.333 195.5,289.333 181.5,290C 187.357,298.013 193.357,305.846 199.5,313.5C 191.616,306.114 184.616,297.948 178.5,289C 194.167,288.333 209.833,288.333 225.5,289C 224.837,290.518 223.837,291.685 222.5,292.5 Z"/></g>
<g><path style="opacity:0.518" fill="#103841" d="M 222.5,292.5 C 222.573,294.027 221.906,295.027 220.5,295.5C 220.427,293.973 221.094,292.973 222.5,292.5 Z"/></g>
<g><path style="opacity:0.008" fill="#0d1e21" d="M 161.5,295.5 C 161.833,295.5 162.167,295.5 162.5,295.5C 163.11,296.391 163.443,297.391 163.5,298.5C 162.094,298.027 161.427,297.027 161.5,295.5 Z"/></g>
<g><path style="opacity:0.459" fill="#0f3f46" d="M 220.5,295.5 C 219.92,297.749 218.587,299.415 216.5,300.5C 217.08,298.251 218.413,296.585 220.5,295.5 Z"/></g>
<g><path style="opacity:0.463" fill="#113d47" d="M 216.5,300.5 C 215.92,302.749 214.587,304.415 212.5,305.5C 213.08,303.251 214.413,301.585 216.5,300.5 Z"/></g>
<g><path style="opacity:0.02" fill="#0f2327" d="M 168.5,304.5 C 169.906,304.973 170.573,305.973 170.5,307.5C 169.094,307.027 168.427,306.027 168.5,304.5 Z"/></g>
<g><path style="opacity:0.04" fill="#051114" d="M 105.5,280.5 C 104.178,280.33 103.011,280.663 102,281.5C 97.037,299.871 95.3703,318.538 97,337.5C 97.5961,348.813 101.763,358.48 109.5,366.5C 104.133,363.814 100.633,359.481 99,353.5C 94.2789,336.417 93.2789,319.083 96,301.5C 96.9927,294.043 98.4927,286.71 100.5,279.5C 102.415,279.216 104.081,279.549 105.5,280.5 Z"/></g>
<g><path style="opacity:0.02" fill="#0f2327" d="M 172.5,309.5 C 173.906,309.973 174.573,310.973 174.5,312.5C 173.094,312.027 172.427,311.027 172.5,309.5 Z"/></g>
<g><path style="opacity:0.502" fill="#102e34" d="M 210.5,307.5 C 209.92,309.749 208.587,311.415 206.5,312.5C 207.08,310.251 208.413,308.585 210.5,307.5 Z"/></g>
<g><path style="opacity:1" fill="#188091" d="M 174.5,312.5 C 177.705,313.13 179.371,315.13 179.5,318.5C 177.844,316.54 176.177,314.54 174.5,312.5 Z"/></g>
<g><path style="opacity:0.153" fill="#09171a" d="M 199.5,313.5 C 200.458,313.953 201.292,314.619 202,315.5C 202.816,314.177 203.983,313.511 205.5,313.5C 203.241,317.396 201.241,317.396 199.5,313.5 Z"/></g>
<g><path style="opacity:0.008" fill="#091518" d="M 261.5,285.5 C 257.736,286.832 253.736,287.665 249.5,288C 239.426,302.078 228.593,315.578 217,328.5C 216.333,329.167 216.333,329.833 217,330.5C 221.337,334.401 225.504,338.401 229.5,342.5C 224.083,339.352 219.25,335.352 215,330.5C 226.229,316.29 237.396,301.79 248.5,287C 252.73,285.71 257.064,285.21 261.5,285.5 Z"/></g>
<g><path style="opacity:1" fill="#1b8da1" d="M 179.5,318.5 C 182.179,318.525 183.512,319.858 183.5,322.5C 181.833,321.5 180.5,320.167 179.5,318.5 Z"/></g>
<g><path style="opacity:0.494" fill="#11444e" d="M 308.5,309.5 C 309.833,315.833 309.833,322.167 308.5,328.5C 307.949,323.313 307.949,317.98 308.5,312.5C 308.5,311.5 308.5,310.5 308.5,309.5 Z"/></g>
<g><path style="opacity:0.211" fill="#0a181b" d="M 78.5,303.5 C 77.1667,316.833 77.1667,330.167 78.5,343.5C 77.71,342.391 77.21,341.058 77,339.5C 76.3333,329.167 76.3333,318.833 77,308.5C 77.1981,306.618 77.6981,304.952 78.5,303.5 Z"/></g>
<g><path style="opacity:0.996" fill="#1f8b9c" d="M 183.5,322.5 C 185.012,324.317 187.012,325.317 189.5,325.5C 189.5,326.5 189.5,327.5 189.5,328.5C 188.833,328.167 188.167,327.833 187.5,327.5C 185.457,326.421 184.124,324.754 183.5,322.5 Z"/></g>
<g><path style="opacity:0.008" fill="#00090c" d="M 187.5,327.5 C 188.167,327.833 188.833,328.167 189.5,328.5C 189.5,328.833 189.5,329.167 189.5,329.5C 188.167,329.5 187.5,328.833 187.5,327.5 Z"/></g>
<g><path style="opacity:0.667" fill="#13424c" d="M 189.5,330.5 C 186.769,334.234 183.436,337.234 179.5,339.5C 182.231,335.766 185.564,332.766 189.5,330.5 Z"/></g>
<g><path style="opacity:0.616" fill="#14454d" d="M 179.5,339.5 C 178.415,341.587 176.749,342.92 174.5,343.5C 175.585,341.413 177.251,340.08 179.5,339.5 Z"/></g>
<g><path style="opacity:0.004" fill="#081517" d="M 229.5,342.5 C 231.749,343.08 233.415,344.413 234.5,346.5C 232.251,345.92 230.585,344.587 229.5,342.5 Z"/></g>
<g><path style="opacity:0.02" fill="#051113" d="M 308.5,331.5 C 308.739,337.184 307.739,342.518 305.5,347.5C 306.011,341.951 307.011,336.617 308.5,331.5 Z"/></g>
<g><path style="opacity:0.616" fill="#113b42" d="M 174.5,343.5 C 173.738,345.262 172.404,346.262 170.5,346.5C 171.262,344.738 172.596,343.738 174.5,343.5 Z"/></g>
<g><path style="opacity:1" fill="#1593a2" d="M 203.5,343.5 C 206.179,343.525 207.512,344.858 207.5,347.5C 205.833,346.5 204.5,345.167 203.5,343.5 Z"/></g>
<g><path style="opacity:0.004" fill="#010c0e" d="M 203.5,343.5 C 201.427,345.58 199.093,347.246 196.5,348.5C 197.96,346.537 199.627,344.704 201.5,343C 202.437,342.308 203.103,342.475 203.5,343.5 Z"/></g>
<g><path style="opacity:0.004" fill="#081617" d="M 234.5,346.5 C 236.404,346.738 237.738,347.738 238.5,349.5C 236.596,349.262 235.262,348.262 234.5,346.5 Z"/></g>
<g><path style="opacity:0.038" fill="#0c1b1d" d="M 78.5,344.5 C 79.8684,348.298 80.8684,352.298 81.5,356.5C 79.3082,352.902 78.3082,348.902 78.5,344.5 Z"/></g>
<g><path style="opacity:0.616" fill="#0f3940" d="M 170.5,346.5 C 169.738,348.262 168.404,349.262 166.5,349.5C 167.262,347.738 168.596,346.738 170.5,346.5 Z"/></g>
<g><path style="opacity:0.863" fill="#18434d" d="M 207.5,347.5 C 209.749,348.08 211.415,349.413 212.5,351.5C 210.251,350.92 208.585,349.587 207.5,347.5 Z"/></g>
<g><path style="opacity:0.098" fill="#061315" d="M 305.5,347.5 C 305.741,349.898 305.074,351.898 303.5,353.5C 303.595,351.214 304.262,349.214 305.5,347.5 Z"/></g>
<g><path style="opacity:0.004" fill="#061215" d="M 238.5,349.5 C 240.027,349.427 241.027,350.094 241.5,351.5C 239.973,351.573 238.973,350.906 238.5,349.5 Z"/></g>
<g><path style="opacity:0.78" fill="#12414c" d="M 166.5,349.5 C 166.027,350.906 165.027,351.573 163.5,351.5C 163.973,350.094 164.973,349.427 166.5,349.5 Z"/></g>
<g><path style="opacity:0.008" fill="#081315" d="M 196.5,348.5 C 194.761,351.243 192.427,353.243 189.5,354.5C 191.239,351.757 193.573,349.757 196.5,348.5 Z"/></g>
<g><path style="opacity:0.004" fill="#041011" d="M 241.5,351.5 C 243.027,351.427 244.027,352.094 244.5,353.5C 242.973,353.573 241.973,352.906 241.5,351.5 Z"/></g>
<g><path style="opacity:0.482" fill="#0b1e25" d="M 161.5,352.5 C 161.027,353.906 160.027,354.573 158.5,354.5C 158.973,353.094 159.973,352.427 161.5,352.5 Z"/></g>
<g><path style="opacity:0.004" fill="#061215" d="M 244.5,353.5 C 246.027,353.427 247.027,354.094 247.5,355.5C 245.973,355.573 244.973,354.906 244.5,353.5 Z"/></g>
<g><path style="opacity:0.635" fill="#0d3035" d="M 158.5,354.5 C 158.027,355.906 157.027,356.573 155.5,356.5C 155.973,355.094 156.973,354.427 158.5,354.5 Z"/></g>
<g><path style="opacity:0.608" fill="#14404a" d="M 214.5,353.5 C 216.749,354.08 218.415,355.413 219.5,357.5C 217.251,356.92 215.585,355.587 214.5,353.5 Z"/></g>
<g><path style="opacity:0.004" fill="#061214" d="M 247.5,355.5 C 249.674,355.75 251.341,356.75 252.5,358.5C 250.326,358.25 248.659,357.25 247.5,355.5 Z"/></g>
<g><path style="opacity:0.161" fill="#0a191c" d="M 303.5,353.5 C 303.116,357.272 301.45,360.272 298.5,362.5C 299.917,359.331 301.583,356.331 303.5,353.5 Z"/></g>
<g><path style="opacity:0.004" fill="#040f11" d="M 189.5,354.5 C 188.415,356.587 186.749,357.92 184.5,358.5C 185.585,356.413 187.251,355.08 189.5,354.5 Z"/></g>
<g><path style="opacity:0.988" fill="#155a65" d="M 219.5,357.5 C 221.404,357.738 222.738,358.738 223.5,360.5C 221.596,360.262 220.262,359.262 219.5,357.5 Z"/></g>
<g><path style="opacity:0.008" fill="#071415" d="M 184.5,358.5 C 183.738,360.262 182.404,361.262 180.5,361.5C 181.262,359.738 182.596,358.738 184.5,358.5 Z"/></g>
<g><path style="opacity:0.988" fill="#165e6e" d="M 223.5,360.5 C 225.404,360.738 226.738,361.738 227.5,363.5C 225.596,363.262 224.262,362.262 223.5,360.5 Z"/></g>
<g><path style="opacity:0.282" fill="#0c2227" d="M 254.5,359.5 C 256.819,359.992 258.819,360.992 260.5,362.5C 257.911,362.539 255.911,361.539 254.5,359.5 Z"/></g>
<g><path style="opacity:0.263" fill="#092329" d="M 82.5,359.5 C 83.6737,360.514 84.3404,361.847 84.5,363.5C 82.8958,362.713 82.2291,361.38 82.5,359.5 Z"/></g>
<g><path style="opacity:0.118" fill="#08181a" d="M 143.5,362.5 C 142.22,363.931 140.553,364.598 138.5,364.5C 139.78,363.069 141.447,362.402 143.5,362.5 Z"/></g>
<g><path style="opacity:0.008" fill="#0b191c" d="M 180.5,361.5 C 176.049,365.61 171.049,368.944 165.5,371.5C 169.976,367.425 174.976,364.092 180.5,361.5 Z"/></g>
<g><path style="opacity:0.306" fill="#0d2e36" d="M 84.5,363.5 C 85.6737,364.514 86.3404,365.847 86.5,367.5C 84.8958,366.713 84.2291,365.38 84.5,363.5 Z"/></g>
<g><path style="opacity:0.757" fill="#114f59" d="M 227.5,363.5 C 229.404,363.738 230.738,364.738 231.5,366.5C 229.596,366.262 228.262,365.262 227.5,363.5 Z"/></g>
<g><path style="opacity:0.041" fill="#071215" d="M 135.5,365.5 C 133.22,367.223 130.553,367.889 127.5,367.5C 129.905,366.232 132.572,365.565 135.5,365.5 Z"/></g>
<g><path style="opacity:0.039" fill="#0d1c1f" d="M 109.5,366.5 C 115.455,367.363 121.455,367.697 127.5,367.5C 121.329,370.381 115.329,370.048 109.5,366.5 Z"/></g>
<g><path style="opacity:0.463" fill="#0f343c" d="M 231.5,366.5 C 233.027,366.427 234.027,367.094 234.5,368.5C 232.973,368.573 231.973,367.906 231.5,366.5 Z"/></g>
<g><path style="opacity:0.029" fill="#0b191c" d="M 262.5,363.5 C 269.122,365.863 275.955,367.197 283,367.5C 287.884,367.885 292.384,366.885 296.5,364.5C 296.047,365.458 295.381,366.292 294.5,367C 283.237,370.676 272.57,369.509 262.5,363.5 Z"/></g>
<g><path style="opacity:0.439" fill="#0d2f34" d="M 234.5,368.5 C 236.027,368.427 237.027,369.094 237.5,370.5C 235.973,370.573 234.973,369.906 234.5,368.5 Z"/></g>
<g><path style="opacity:0.012" fill="#0d1f22" d="M 87.5,369.5 C 88.9063,369.973 89.573,370.973 89.5,372.5C 88.0937,372.027 87.427,371.027 87.5,369.5 Z"/></g>
<g><path style="opacity:0.129" fill="#0b191d" d="M 165.5,371.5 C 162.992,373.924 159.992,375.59 156.5,376.5C 159.008,374.076 162.008,372.41 165.5,371.5 Z"/></g>
<g><path style="opacity:0.424" fill="#0d363c" d="M 239.5,371.5 C 241.027,371.427 242.027,372.094 242.5,373.5C 240.973,373.573 239.973,372.906 239.5,371.5 Z"/></g>
<g><path style="opacity:0.008" fill="#071214" d="M 325.5,272.5 C 324.4,273.558 323.066,274.392 321.5,275C 327.537,297.826 329.037,320.993 326,344.5C 323.908,358.519 317.742,370.352 307.5,380C 306.906,380.464 306.239,380.631 305.5,380.5C 313.995,372.491 319.829,362.824 323,351.5C 328.123,325.994 327.29,300.661 320.5,275.5C 321.073,272.915 322.739,271.915 325.5,272.5 Z"/></g>
<g><path style="opacity:1" fill="#1aa4bd" d="M 246.5,375.5 C 249.167,375.833 251.833,376.167 254.5,376.5C 254.5,377.5 254.5,378.5 254.5,379.5C 251.515,378.674 248.849,377.341 246.5,375.5 Z"/></g>
<g><path style="opacity:0.18" fill="#0b1c1e" d="M 154.5,377.5 C 151.63,379.794 148.297,381.128 144.5,381.5C 147.53,379.597 150.863,378.263 154.5,377.5 Z"/></g>
<g><path style="opacity:0.686" fill="#14545b" d="M 95.5,378.5 C 97.0269,378.427 98.0269,379.094 98.5,380.5C 96.9731,380.573 95.9731,379.906 95.5,378.5 Z"/></g>
<g><path style="opacity:0.996" fill="#195462" d="M 259.5,381.5 C 261.698,381.12 263.365,381.787 264.5,383.5C 262.447,383.598 260.78,382.931 259.5,381.5 Z"/></g>
<g><path style="opacity:0.239" fill="#0d1e24" d="M 305.5,380.5 C 303.421,382.873 300.754,384.206 297.5,384.5C 299.849,382.659 302.515,381.326 305.5,380.5 Z"/></g>
<g><path style="opacity:0.004" fill="#0b1b1d" d="M 144.5,381.5 C 142.898,383.074 140.898,383.741 138.5,383.5C 140.214,382.262 142.214,381.595 144.5,381.5 Z"/></g>
<g><path style="opacity:0.961" fill="#145468" d="M 103.5,383.5 C 106.152,383.41 108.485,384.076 110.5,385.5C 107.848,385.59 105.515,384.924 103.5,383.5 Z"/></g>
<g><path style="opacity:0.584" fill="#0f464f" d="M 265.5,383.5 C 268.428,383.565 271.095,384.232 273.5,385.5C 270.505,385.706 267.838,385.04 265.5,383.5 Z"/></g>
<g><path style="opacity:0.004" fill="#113035" d="M 134.5,384.5 C 130.104,386.033 125.437,386.7 120.5,386.5C 116.982,386.498 113.649,386.165 110.5,385.5C 118.529,385.656 126.529,385.323 134.5,384.5 Z"/></g>
<g><path style="opacity:0.122" fill="#0a181b" d="M 297.5,384.5 C 295.162,386.04 292.495,386.706 289.5,386.5C 291.905,385.232 294.572,384.565 297.5,384.5 Z"/></g>
</svg>
