<?xml version="1.0" encoding="UTF-8"?>
<!DOCTYPE svg PUBLIC "-//W3C//DTD SVG 1.1//EN" "http://www.w3.org/Graphics/SVG/1.1/DTD/svg11.dtd">
<svg xmlns="http://www.w3.org/2000/svg" version="1.1" width="500px" height="500px" style="shape-rendering:geometricPrecision; text-rendering:geometricPrecision; image-rendering:optimizeQuality; fill-rule:evenodd; clip-rule:evenodd" xmlns:xlink="http://www.w3.org/1999/xlink">
<g><path style="opacity:1" fill="#1b1b1b" d="M 408.5,216.5 C 407.5,216.833 406.833,217.5 406.5,218.5C 406.586,219.496 406.252,220.329 405.5,221C 387.996,237.005 370.662,253.172 353.5,269.5C 352.5,269.833 351.833,270.5 351.5,271.5C 344.419,279.584 336.752,286.918 328.5,293.5C 327.5,293.833 326.833,294.5 326.5,295.5C 292.169,329.838 257.169,363.504 221.5,396.5C 220.5,396.833 219.833,397.5 219.5,398.5C 202.19,415.809 184.523,432.809 166.5,449.5C 165.5,449.833 164.833,450.5 164.5,451.5C 160.607,458.104 156.773,458.104 153,451.5C 121.612,322.728 89.7787,194.061 57.5,65.5C 58.1279,63.7419 59.1279,62.2419 60.5,61C 64.8832,61.0076 69.2165,61.6743 73.5,63C 198.13,99.3222 322.797,135.322 447.5,171C 449.444,173.153 449.944,175.653 449,178.5C 435.61,191.393 422.11,204.06 408.5,216.5 Z M 70.5,73.5 C 81.1493,76.1531 91.816,78.8198 102.5,81.5C 104.515,82.9238 106.848,83.5905 109.5,83.5C 120.923,87.3261 132.59,90.6594 144.5,93.5C 146.076,94.1429 147.41,95.1429 148.5,96.5C 140.425,103.908 132.758,111.575 125.5,119.5C 123.251,120.08 121.585,121.413 120.5,123.5C 118.5,124.833 116.833,126.5 115.5,128.5C 110.5,132.833 105.833,137.5 101.5,142.5C 98.2358,144.094 95.5691,146.427 93.5,149.5C 92.2058,150.29 91.0391,151.29 90,152.5C 89.7216,151.584 89.2216,150.918 88.5,150.5C 88.7062,147.505 88.0395,144.838 86.5,142.5C 86.7845,140.585 86.4511,138.919 85.5,137.5C 85.5905,134.848 84.9238,132.515 83.5,130.5C 79.3259,111.47 74.9925,92.4696 70.5,73.5 Z M 167.5,100.5 C 177.952,103.867 188.618,106.867 199.5,109.5C 201.515,110.924 203.848,111.59 206.5,111.5C 208.515,112.924 210.848,113.59 213.5,113.5C 214.93,114.537 216.597,115.204 218.5,115.5C 226.942,117.529 235.276,120.029 243.5,123C 242.748,123.671 242.414,124.504 242.5,125.5C 240.596,125.738 239.262,126.738 238.5,128.5C 236.5,129.833 234.833,131.5 233.5,133.5C 228.5,137.833 223.833,142.5 219.5,147.5C 216.573,148.757 214.239,150.757 212.5,153.5C 210.5,154.833 208.833,156.5 207.5,158.5C 203.167,162.167 199.167,166.167 195.5,170.5C 193.596,170.738 192.262,171.738 191.5,173.5C 189.64,174.939 187.973,176.605 186.5,178.5C 185.313,176.928 184.313,175.261 183.5,173.5C 182.344,166.053 180.677,158.719 178.5,151.5C 178.59,148.848 177.924,146.515 176.5,144.5C 176.112,140.007 175.112,135.673 173.5,131.5C 173.59,128.848 172.924,126.515 171.5,124.5C 171.784,122.585 171.451,120.919 170.5,119.5C 170.59,116.848 169.924,114.515 168.5,112.5C 168.453,109.031 167.787,105.698 166.5,102.5C 166.328,101.508 166.662,100.842 167.5,100.5 Z M 155.5,103.5 C 156.167,103.833 156.833,104.167 157.5,104.5C 162.875,129.334 168.875,154.001 175.5,178.5C 175.737,179.791 175.404,180.791 174.5,181.5C 148.807,174.159 123.14,166.659 97.5,159C 106.005,151.662 114.005,143.828 121.5,135.5C 122.833,135.5 123.5,134.833 123.5,133.5C 131.752,126.918 139.419,119.584 146.5,111.5C 147.833,111.5 148.5,110.833 148.5,109.5C 151.153,107.845 153.486,105.845 155.5,103.5 Z M 263.5,128.5 C 264.167,128.5 264.833,128.5 265.5,128.5C 267.214,129.738 269.214,130.405 271.5,130.5C 278.649,132.789 285.982,134.789 293.5,136.5C 295.515,137.924 297.848,138.59 300.5,138.5C 312.914,142.687 325.581,146.354 338.5,149.5C 337.89,150.391 337.557,151.391 337.5,152.5C 333.255,155.072 329.589,158.406 326.5,162.5C 323.167,165.167 320.167,168.167 317.5,171.5C 314.833,173.5 312.5,175.833 310.5,178.5C 306.9,180.43 303.9,183.097 301.5,186.5C 294.758,192.575 288.425,198.908 282.5,205.5C 281.5,205.5 280.5,205.5 279.5,205.5C 275.277,186.277 270.61,167.277 265.5,148.5C 265.59,145.848 264.924,143.515 263.5,141.5C 263.309,137.738 262.642,134.071 261.5,130.5C 261.5,129.167 262.167,128.5 263.5,128.5 Z M 194.5,187.5 C 194.167,186.833 193.833,186.167 193.5,185.5C 208.5,170.833 223.5,156.167 238.5,141.5C 240.5,141.5 241.5,140.5 241.5,138.5C 242.833,138.5 243.5,137.833 243.5,136.5C 246.082,134.768 248.582,132.768 251,130.5C 257.904,156.561 264.071,182.561 269.5,208.5C 244.613,201.029 219.613,194.029 194.5,187.5 Z M 357.5,155.5 C 357.833,155.5 358.167,155.5 358.5,155.5C 361.907,157.074 365.573,158.074 369.5,158.5C 382.038,162.568 394.705,166.234 407.5,169.5C 409.214,170.738 411.214,171.405 413.5,171.5C 420.484,173.494 427.484,175.494 434.5,177.5C 433.5,178.833 432.5,180.167 431.5,181.5C 425.833,186.5 420.5,191.833 415.5,197.5C 413.5,197.5 412.5,198.5 412.5,200.5C 411.069,201.082 409.736,201.915 408.5,203C 407.748,203.671 407.414,204.504 407.5,205.5C 405.596,205.738 404.262,206.738 403.5,208.5C 396.806,214.527 390.473,220.86 384.5,227.5C 381.573,228.757 379.239,230.757 377.5,233.5C 376.883,233.611 376.383,233.944 376,234.5C 375.243,232.685 374.41,231.019 373.5,229.5C 370.546,215.396 367.213,201.396 363.5,187.5C 363.59,184.848 362.924,182.515 361.5,180.5C 359.993,172.804 358.326,165.137 356.5,157.5C 356.328,156.508 356.662,155.842 357.5,155.5 Z M 288.5,214.5 C 288.5,213.833 288.5,213.167 288.5,212.5C 291.833,209.833 294.833,206.833 297.5,203.5C 299.341,202.598 300.674,201.264 301.5,199.5C 312.108,190.561 322.108,180.894 331.5,170.5C 332.833,170.5 333.5,169.833 333.5,168.5C 337.844,165.211 342.011,161.545 346,157.5C 352.854,183.787 359.188,210.121 365,236.5C 339.603,228.853 314.103,221.52 288.5,214.5 Z M 123.5,176.5 C 125.515,177.924 127.848,178.59 130.5,178.5C 131.93,179.537 133.597,180.204 135.5,180.5C 147.423,184.029 159.423,187.362 171.5,190.5C 171.833,191.167 172.167,191.833 172.5,192.5C 169.215,194.451 166.549,197.118 164.5,200.5C 162.596,200.738 161.262,201.738 160.5,203.5C 158.5,204.833 156.833,206.5 155.5,208.5C 150.167,213.167 145.167,218.167 140.5,223.5C 136.9,225.43 133.9,228.097 131.5,231.5C 125.785,236.548 120.452,241.881 115.5,247.5C 114.5,247.5 113.5,247.5 112.5,247.5C 112.768,245.901 112.434,244.568 111.5,243.5C 111.706,240.505 111.04,237.838 109.5,235.5C 109.768,233.901 109.434,232.568 108.5,231.5C 108.706,228.505 108.04,225.838 106.5,223.5C 103.8,209.327 100.466,195.327 96.5,181.5C 96.5905,178.848 95.9238,176.515 94.5,174.5C 94.1667,172.5 93.8333,170.5 93.5,168.5C 103.449,171.372 113.449,174.039 123.5,176.5 Z M 191.5,196.5 C 192.167,196.5 192.833,196.5 193.5,196.5C 195.515,197.924 197.848,198.59 200.5,198.5C 207.35,200.963 214.35,202.963 221.5,204.5C 223.515,205.924 225.848,206.59 228.5,206.5C 230.515,207.924 232.848,208.59 235.5,208.5C 245.594,211.944 255.928,214.944 266.5,217.5C 266.833,218.167 267.167,218.833 267.5,219.5C 265.027,221.061 263.027,223.061 261.5,225.5C 258.236,227.094 255.569,229.427 253.5,232.5C 248.167,237.167 243.167,242.167 238.5,247.5C 236.5,247.5 235.5,248.5 235.5,250.5C 233.596,250.738 232.262,251.738 231.5,253.5C 224.214,260.451 216.88,267.451 209.5,274.5C 205.703,260.835 202.036,247.169 198.5,233.5C 198.706,230.505 198.04,227.838 196.5,225.5C 194.755,216.444 192.755,207.444 190.5,198.5C 190.328,197.508 190.662,196.842 191.5,196.5 Z M 199.5,275.5 C 199.715,277.179 199.048,278.179 197.5,278.5C 171.996,270.869 146.33,263.369 120.5,256C 123.704,252.964 126.704,249.797 129.5,246.5C 130.833,246.5 131.5,245.833 131.5,244.5C 141.775,235.562 151.775,226.228 161.5,216.5C 162.906,216.027 163.573,215.027 163.5,213.5C 169.383,209.127 174.883,204.127 180,198.5C 186.65,224.255 193.15,249.922 199.5,275.5 Z M 285.5,223.5 C 306.671,230.113 328.004,236.113 349.5,241.5C 351.515,242.924 353.848,243.59 356.5,243.5C 358.214,244.738 360.214,245.405 362.5,245.5C 362.833,246.167 363.167,246.833 363.5,247.5C 362.167,248.167 361.167,249.167 360.5,250.5C 358.596,250.738 357.262,251.738 356.5,253.5C 354.64,254.939 352.973,256.605 351.5,258.5C 350.167,259.167 349.167,260.167 348.5,261.5C 340.451,268.552 332.784,275.885 325.5,283.5C 323.5,284.833 321.833,286.5 320.5,288.5C 315.833,292.5 311.5,296.833 307.5,301.5C 305.938,301.733 304.605,302.4 303.5,303.5C 301.792,293.336 299.459,283.336 296.5,273.5C 296.59,270.848 295.924,268.515 294.5,266.5C 294.768,264.901 294.434,263.568 293.5,262.5C 293.706,259.505 293.04,256.838 291.5,254.5C 289.786,244.576 287.453,234.909 284.5,225.5C 284.328,224.508 284.662,223.842 285.5,223.5 Z M 217.5,284.5 C 216.833,283.833 216.167,283.167 215.5,282.5C 219.5,279.167 223.167,275.5 226.5,271.5C 227.833,271.5 228.5,270.833 228.5,269.5C 243.787,255.216 259.12,240.883 274.5,226.5C 281.953,253.007 288.453,279.674 294,306.5C 268.662,298.624 243.162,291.29 217.5,284.5 Z M 178.5,305.5 C 175.573,306.757 173.239,308.757 171.5,311.5C 165.833,316.5 160.5,321.833 155.5,327.5C 153.5,327.5 152.5,328.5 152.5,330.5C 149.081,332.645 146.081,335.312 143.5,338.5C 141.5,339.833 139.833,341.5 138.5,343.5C 137.833,343.833 137.167,344.167 136.5,344.5C 136.706,341.505 136.04,338.838 134.5,336.5C 134.634,334.708 134.301,333.042 133.5,331.5C 133.59,328.848 132.924,326.515 131.5,324.5C 131.112,320.007 130.112,315.673 128.5,311.5C 128.59,308.848 127.924,306.515 126.5,304.5C 123.533,291.457 120.7,278.457 118,265.5C 143.766,273.068 169.599,280.568 195.5,288C 189.63,293.702 183.964,299.535 178.5,305.5 Z M 261.5,306.5 C 263.515,307.924 265.848,308.59 268.5,308.5C 269.209,309.404 270.209,309.737 271.5,309.5C 273.515,310.924 275.848,311.59 278.5,311.5C 280.515,312.924 282.848,313.59 285.5,313.5C 287.277,314.6 289.277,315.434 291.5,316C 289.294,318.037 287.294,320.203 285.5,322.5C 283.5,322.5 282.5,323.5 282.5,325.5C 279.081,327.645 276.081,330.312 273.5,333.5C 271.5,334.833 269.833,336.5 268.5,338.5C 263.473,342.86 258.806,347.527 254.5,352.5C 251.573,353.757 249.239,355.757 247.5,358.5C 245.5,359.833 243.833,361.5 242.5,363.5C 239.536,365.962 236.703,368.629 234,371.5C 232.1,366.126 230.267,360.793 228.5,355.5C 228.706,352.505 228.04,349.838 226.5,347.5C 226.784,345.585 226.451,343.919 225.5,342.5C 225.59,339.848 224.924,337.515 223.5,335.5C 223.453,332.031 222.787,328.698 221.5,325.5C 221.59,322.848 220.924,320.515 219.5,318.5C 218.135,310.343 216.135,302.343 213.5,294.5C 214,294.167 214.5,293.833 215,293.5C 230.433,298.145 245.933,302.479 261.5,306.5 Z M 202.5,295.5 C 203.167,295.5 203.833,295.5 204.5,295.5C 210.09,320.603 216.09,345.603 222.5,370.5C 222.179,372.048 221.179,372.715 219.5,372.5C 195.241,365.303 170.908,358.303 146.5,351.5C 146.5,350.833 146.5,350.167 146.5,349.5C 152.779,343.887 158.779,337.887 164.5,331.5C 165.833,331.5 166.5,330.833 166.5,329.5C 178.802,318.532 190.802,307.199 202.5,295.5 Z M 142.5,360.5 C 155.731,364.475 169.064,368.142 182.5,371.5C 184.515,372.924 186.848,373.59 189.5,373.5C 199.666,376.959 209.999,379.959 220.5,382.5C 220.719,383.675 220.386,384.675 219.5,385.5C 212.425,391.908 205.758,398.575 199.5,405.5C 195.9,407.43 192.9,410.097 190.5,413.5C 185.167,418.167 180.167,423.167 175.5,428.5C 172.573,429.757 170.239,431.757 168.5,434.5C 166.167,436.167 164.167,438.167 162.5,440.5C 161.833,440.5 161.167,440.5 160.5,440.5C 159.291,435.116 157.957,429.782 156.5,424.5C 156.59,421.848 155.924,419.515 154.5,417.5C 154.768,415.901 154.434,414.568 153.5,413.5C 153.706,410.505 153.04,407.838 151.5,405.5C 151.281,401.2 150.281,397.2 148.5,393.5C 148.706,390.505 148.04,387.838 146.5,385.5C 146.784,383.585 146.451,381.919 145.5,380.5C 145.59,377.848 144.924,375.515 143.5,373.5C 143.453,370.031 142.787,366.698 141.5,363.5C 141.263,362.209 141.596,361.209 142.5,360.5 Z"/></g>
<g><path style="opacity:0.737" fill="#676767" d="M 102.5,81.5 C 105.228,81.1706 107.562,81.8372 109.5,83.5C 106.848,83.5905 104.515,82.9238 102.5,81.5 Z"/></g>
<g><path style="opacity:0.616" fill="#6d6d6d" d="M 144.5,93.5 C 146.827,93.2471 148.827,93.9137 150.5,95.5C 150.043,96.2975 149.376,96.6309 148.5,96.5C 147.41,95.1429 146.076,94.1429 144.5,93.5 Z"/></g>
<g><path style="opacity:0.275" fill="#989898" d="M 167.5,100.5 C 166.662,100.842 166.328,101.508 166.5,102.5C 165.224,101.614 165.224,100.614 166.5,99.5C 167.107,99.6236 167.44,99.9569 167.5,100.5 Z"/></g>
<g><path style="opacity:0.349" fill="#c9c9c9" d="M 155.5,103.5 C 156.623,102.243 157.289,102.576 157.5,104.5C 156.833,104.167 156.167,103.833 155.5,103.5 Z"/></g>
<g><path style="opacity:0.008" fill="#c4c4c4" d="M 148.5,109.5 C 148.5,110.833 147.833,111.5 146.5,111.5C 146.833,110.5 147.5,109.833 148.5,109.5 Z"/></g>
<g><path style="opacity:0.718" fill="#6e6e6e" d="M 199.5,109.5 C 202.152,109.41 204.485,110.076 206.5,111.5C 203.848,111.59 201.515,110.924 199.5,109.5 Z"/></g>
<g><path style="opacity:0.686" fill="#787878" d="M 206.5,111.5 C 209.152,111.41 211.485,112.076 213.5,113.5C 210.848,113.59 208.515,112.924 206.5,111.5 Z"/></g>
<g><path style="opacity:0.894" fill="#878787" d="M 213.5,113.5 C 215.698,113.12 217.365,113.787 218.5,115.5C 216.597,115.204 214.93,114.537 213.5,113.5 Z"/></g>
<g><path style="opacity:0.863" fill="#7a7a7a" d="M 168.5,112.5 C 169.924,114.515 170.59,116.848 170.5,119.5C 169.076,117.485 168.41,115.152 168.5,112.5 Z"/></g>
<g><path style="opacity:0.749" fill="#7e7e7e" d="M 125.5,119.5 C 124.415,121.587 122.749,122.92 120.5,123.5C 121.585,121.413 123.251,120.08 125.5,119.5 Z"/></g>
<g><path style="opacity:0.863" fill="#666666" d="M 120.5,123.5 C 119.833,126.167 118.167,127.833 115.5,128.5C 116.833,126.5 118.5,124.833 120.5,123.5 Z"/></g>
<g><path style="opacity:0.722" fill="#868686" d="M 242.5,125.5 C 241.738,127.262 240.404,128.262 238.5,128.5C 239.262,126.738 240.596,125.738 242.5,125.5 Z"/></g>
<g><path style="opacity:0.008" fill="#e5e5e5" d="M 263.5,128.5 C 262.167,128.5 261.5,129.167 261.5,130.5C 260.596,129.791 260.263,128.791 260.5,127.5C 261.791,127.263 262.791,127.596 263.5,128.5 Z"/></g>
<g><path style="opacity:0.894" fill="#868686" d="M 265.5,128.5 C 267.898,128.259 269.898,128.926 271.5,130.5C 269.214,130.405 267.214,129.738 265.5,128.5 Z"/></g>
<g><path style="opacity:0.537" fill="#8c8c8c" d="M 171.5,124.5 C 172.924,126.515 173.59,128.848 173.5,131.5C 172.076,129.485 171.41,127.152 171.5,124.5 Z"/></g>
<g><path style="opacity:0.843" fill="#636363" d="M 238.5,128.5 C 237.833,131.167 236.167,132.833 233.5,133.5C 234.833,131.5 236.5,129.833 238.5,128.5 Z"/></g>
<g><path style="opacity:0.906" fill="#787878" d="M 83.5,130.5 C 84.9238,132.515 85.5905,134.848 85.5,137.5C 84.0762,135.485 83.4095,133.152 83.5,130.5 Z"/></g>
<g><path style="opacity:0.004" fill="#bdbdbd" d="M 123.5,133.5 C 123.5,134.833 122.833,135.5 121.5,135.5C 121.833,134.5 122.5,133.833 123.5,133.5 Z"/></g>
<g><path style="opacity:0.008" fill="#bdbdbd" d="M 243.5,136.5 C 243.5,137.833 242.833,138.5 241.5,138.5C 241.833,137.5 242.5,136.833 243.5,136.5 Z"/></g>
<g><path style="opacity:0.69" fill="#737373" d="M 293.5,136.5 C 296.152,136.41 298.485,137.076 300.5,138.5C 297.848,138.59 295.515,137.924 293.5,136.5 Z"/></g>
<g><path style="opacity:0.004" fill="#d1d1d1" d="M 241.5,138.5 C 241.5,140.5 240.5,141.5 238.5,141.5C 239.167,140.167 240.167,139.167 241.5,138.5 Z"/></g>
<g><path style="opacity:0.898" fill="#6e6e6e" d="M 263.5,141.5 C 264.924,143.515 265.59,145.848 265.5,148.5C 264.076,146.485 263.41,144.152 263.5,141.5 Z"/></g>
<g><path style="opacity:0.612" fill="#979797" d="M 101.5,142.5 C 99.4309,145.573 96.7642,147.906 93.5,149.5C 95.5691,146.427 98.2358,144.094 101.5,142.5 Z"/></g>
<g><path style="opacity:0.573" fill="#7d7d7d" d="M 86.5,142.5 C 88.0395,144.838 88.7062,147.505 88.5,150.5C 87.2318,148.095 86.5651,145.428 86.5,142.5 Z"/></g>
<g><path style="opacity:0.612" fill="#8d8d8d" d="M 219.5,147.5 C 217.761,150.243 215.427,152.243 212.5,153.5C 214.239,150.757 216.573,148.757 219.5,147.5 Z"/></g>
<g><path style="opacity:0.482" fill="#979797" d="M 176.5,144.5 C 177.924,146.515 178.59,148.848 178.5,151.5C 177.076,149.485 176.41,147.152 176.5,144.5 Z"/></g>
<g><path style="opacity:0.549" fill="#989898" d="M 338.5,149.5 C 340.55,150.322 340.217,151.322 337.5,152.5C 337.557,151.391 337.89,150.391 338.5,149.5 Z"/></g>
<g><path style="opacity:0.063" fill="#dbdbdb" d="M 357.5,155.5 C 356.662,155.842 356.328,156.508 356.5,157.5C 355.224,156.614 355.224,155.614 356.5,154.5C 357.107,154.624 357.44,154.957 357.5,155.5 Z"/></g>
<g><path style="opacity:0.898" fill="#828282" d="M 358.5,155.5 C 362.534,155.517 366.201,156.517 369.5,158.5C 365.573,158.074 361.907,157.074 358.5,155.5 Z"/></g>
<g><path style="opacity:0.906" fill="#616161" d="M 212.5,153.5 C 211.833,156.167 210.167,157.833 207.5,158.5C 208.833,156.5 210.5,154.833 212.5,153.5 Z"/></g>
<g><path style="opacity:0.957" fill="#474747" d="M 326.5,162.5 C 324.5,166.5 321.5,169.5 317.5,171.5C 320.167,168.167 323.167,165.167 326.5,162.5 Z"/></g>
<g><path style="opacity:0.004" fill="#bdbdbd" d="M 333.5,168.5 C 333.5,169.833 332.833,170.5 331.5,170.5C 331.833,169.5 332.5,168.833 333.5,168.5 Z"/></g>
<g><path style="opacity:0.89" fill="#848484" d="M 407.5,169.5 C 409.898,169.259 411.898,169.926 413.5,171.5C 411.214,171.405 409.214,170.738 407.5,169.5 Z"/></g>
<g><path style="opacity:0.62" fill="#a2a2a2" d="M 195.5,170.5 C 194.738,172.262 193.404,173.262 191.5,173.5C 192.262,171.738 193.596,170.738 195.5,170.5 Z"/></g>
<g><path style="opacity:0.933" fill="#6f6f6f" d="M 183.5,173.5 C 184.313,175.261 185.313,176.928 186.5,178.5C 186.154,180.705 185.487,180.872 184.5,179C 183.767,177.234 183.433,175.401 183.5,173.5 Z"/></g>
<g><path style="opacity:0.647" fill="#7b7b7b" d="M 123.5,176.5 C 126.152,176.41 128.485,177.076 130.5,178.5C 127.848,178.59 125.515,177.924 123.5,176.5 Z"/></g>
<g><path style="opacity:0.902" fill="#878787" d="M 130.5,178.5 C 132.698,178.12 134.365,178.787 135.5,180.5C 133.597,180.204 131.93,179.537 130.5,178.5 Z"/></g>
<g><path style="opacity:0.682" fill="#888888" d="M 434.5,177.5 C 435.239,177.369 435.906,177.536 436.5,178C 435.211,179.802 433.544,180.969 431.5,181.5C 432.5,180.167 433.5,178.833 434.5,177.5 Z"/></g>
<g><path style="opacity:0.537" fill="#8b8b8b" d="M 94.5,174.5 C 95.9238,176.515 96.5905,178.848 96.5,181.5C 95.0762,179.485 94.4095,177.152 94.5,174.5 Z"/></g>
<g><path style="opacity:0.2" fill="#a9a9a9" d="M 175.5,178.5 C 176.782,179.708 176.782,181.042 175.5,182.5C 174.893,182.376 174.56,182.043 174.5,181.5C 175.404,180.791 175.737,179.791 175.5,178.5 Z"/></g>
<g><path style="opacity:0.659" fill="#8d8d8d" d="M 310.5,178.5 C 308.1,181.903 305.1,184.57 301.5,186.5C 303.9,183.097 306.9,180.43 310.5,178.5 Z"/></g>
<g><path style="opacity:0.435" fill="#bbbbbb" d="M 193.5,185.5 C 193.833,186.167 194.167,186.833 194.5,187.5C 192.576,187.289 192.243,186.623 193.5,185.5 Z"/></g>
<g><path style="opacity:0.533" fill="#8b8b8b" d="M 361.5,180.5 C 362.924,182.515 363.59,184.848 363.5,187.5C 362.076,185.485 361.41,183.152 361.5,180.5 Z"/></g>
<g><path style="opacity:0.22" fill="#c6c6c6" d="M 171.5,190.5 C 173.424,190.711 173.757,191.377 172.5,192.5C 172.167,191.833 171.833,191.167 171.5,190.5 Z"/></g>
<g><path style="opacity:0.014" fill="#e8e8e8" d="M 191.5,196.5 C 190.662,196.842 190.328,197.508 190.5,198.5C 189.224,197.614 189.224,196.614 190.5,195.5C 191.107,195.624 191.44,195.957 191.5,196.5 Z"/></g>
<g><path style="opacity:0.627" fill="#848484" d="M 193.5,196.5 C 196.152,196.41 198.485,197.076 200.5,198.5C 197.848,198.59 195.515,197.924 193.5,196.5 Z"/></g>
<g><path style="opacity:0.463" fill="#9e9e9e" d="M 415.5,197.5 C 414.833,198.833 413.833,199.833 412.5,200.5C 412.5,198.5 413.5,197.5 415.5,197.5 Z"/></g>
<g><path style="opacity:0.975" fill="#616161" d="M 301.5,199.5 C 300.674,201.264 299.341,202.598 297.5,203.5C 297.5,202.5 297.5,201.5 297.5,200.5C 298.959,200.567 300.292,200.234 301.5,199.5 Z"/></g>
<g><path style="opacity:0.694" fill="#848484" d="M 164.5,200.5 C 163.738,202.262 162.404,203.262 160.5,203.5C 161.262,201.738 162.596,200.738 164.5,200.5 Z"/></g>
<g><path style="opacity:0.749" fill="#676767" d="M 221.5,204.5 C 224.152,204.41 226.485,205.076 228.5,206.5C 225.848,206.59 223.515,205.924 221.5,204.5 Z"/></g>
<g><path style="opacity:0.025" fill="#c3c3c3" d="M 279.5,205.5 C 280.5,205.5 281.5,205.5 282.5,205.5C 281.26,207.985 280.26,207.985 279.5,205.5 Z"/></g>
<g><path style="opacity:0.839" fill="#6d6d6d" d="M 160.5,203.5 C 159.833,206.167 158.167,207.833 155.5,208.5C 156.833,206.5 158.5,204.833 160.5,203.5 Z"/></g>
<g><path style="opacity:0.663" fill="#787878" d="M 228.5,206.5 C 231.152,206.41 233.485,207.076 235.5,208.5C 232.848,208.59 230.515,207.924 228.5,206.5 Z"/></g>
<g><path style="opacity:0.71" fill="#888888" d="M 407.5,205.5 C 406.738,207.262 405.404,208.262 403.5,208.5C 404.262,206.738 405.596,205.738 407.5,205.5 Z"/></g>
<g><path style="opacity:0.004" fill="#ededed" d="M 288.5,212.5 C 288.5,213.167 288.5,213.833 288.5,214.5C 286.067,214.214 286.067,213.548 288.5,212.5 Z"/></g>
<g><path style="opacity:0.008" fill="#c8c8c8" d="M 163.5,213.5 C 163.573,215.027 162.906,216.027 161.5,216.5C 161.427,214.973 162.094,213.973 163.5,213.5 Z"/></g>
<g><path style="opacity:0.286" fill="#bbbbbb" d="M 266.5,217.5 C 268.424,217.711 268.757,218.377 267.5,219.5C 267.167,218.833 266.833,218.167 266.5,217.5 Z"/></g>
<g><path style="opacity:0.008" fill="#bcbcbc" d="M 408.5,216.5 C 408.5,217.833 407.833,218.5 406.5,218.5C 406.833,217.5 407.5,216.833 408.5,216.5 Z"/></g>
<g><path style="opacity:0.333" fill="#9e9e9e" d="M 285.5,223.5 C 284.662,223.842 284.328,224.508 284.5,225.5C 283.224,224.614 283.224,223.614 284.5,222.5C 285.107,222.624 285.44,222.957 285.5,223.5 Z"/></g>
<g><path style="opacity:0.584" fill="#8b8b8b" d="M 261.5,225.5 C 259.431,228.573 256.764,230.906 253.5,232.5C 255.569,229.427 258.236,227.094 261.5,225.5 Z"/></g>
<g><path style="opacity:0.651" fill="#939393" d="M 140.5,223.5 C 138.1,226.903 135.1,229.57 131.5,231.5C 133.9,228.097 136.9,225.43 140.5,223.5 Z"/></g>
<g><path style="opacity:0.902" fill="#7a7a7a" d="M 196.5,225.5 C 198.04,227.838 198.706,230.505 198.5,233.5C 197.232,231.095 196.565,228.428 196.5,225.5 Z"/></g>
<g><path style="opacity:0.545" fill="#7b7b7b" d="M 106.5,223.5 C 108.04,225.838 108.706,228.505 108.5,231.5C 107.232,229.095 106.565,226.428 106.5,223.5 Z"/></g>
<g><path style="opacity:0.612" fill="#8b8b8b" d="M 384.5,227.5 C 382.761,230.243 380.427,232.243 377.5,233.5C 379.239,230.757 381.573,228.757 384.5,227.5 Z"/></g>
<g><path style="opacity:0.804" fill="#676767" d="M 373.5,229.5 C 374.41,231.019 375.243,232.685 376,234.5C 376.383,233.944 376.883,233.611 377.5,233.5C 377.585,234.995 376.919,235.995 375.5,236.5C 374.056,234.392 373.39,232.059 373.5,229.5 Z"/></g>
<g><path style="opacity:0.988" fill="#656565" d="M 109.5,235.5 C 111.04,237.838 111.706,240.505 111.5,243.5C 110.232,241.095 109.565,238.428 109.5,235.5 Z"/></g>
<g><path style="opacity:0.718" fill="#707070" d="M 349.5,241.5 C 352.152,241.41 354.485,242.076 356.5,243.5C 353.848,243.59 351.515,242.924 349.5,241.5 Z"/></g>
<g><path style="opacity:0.008" fill="#bfbfbf" d="M 131.5,244.5 C 131.5,245.833 130.833,246.5 129.5,246.5C 129.833,245.5 130.5,244.833 131.5,244.5 Z"/></g>
<g><path style="opacity:0.239" fill="#c2c2c2" d="M 362.5,245.5 C 364.424,245.711 364.757,246.377 363.5,247.5C 363.167,246.833 362.833,246.167 362.5,245.5 Z"/></g>
<g><path style="opacity:0.016" fill="#cdcdcd" d="M 112.5,247.5 C 113.5,247.5 114.5,247.5 115.5,247.5C 113.957,249.557 112.957,249.557 112.5,247.5 Z"/></g>
<g><path style="opacity:0.416" fill="#acacac" d="M 238.5,247.5 C 237.833,248.833 236.833,249.833 235.5,250.5C 235.5,248.5 236.5,247.5 238.5,247.5 Z"/></g>
<g><path style="opacity:0.655" fill="#979797" d="M 360.5,250.5 C 359.738,252.262 358.404,253.262 356.5,253.5C 357.262,251.738 358.596,250.738 360.5,250.5 Z"/></g>
<g><path style="opacity:0.659" fill="#999999" d="M 235.5,250.5 C 234.738,252.262 233.404,253.262 231.5,253.5C 232.262,251.738 233.596,250.738 235.5,250.5 Z"/></g>
<g><path style="opacity:0.882" fill="#7d7d7d" d="M 291.5,254.5 C 293.04,256.838 293.706,259.505 293.5,262.5C 292.232,260.095 291.565,257.428 291.5,254.5 Z"/></g>
<g><path style="opacity:0.718" fill="#848484" d="M 351.5,258.5 C 351.5,260.5 350.5,261.5 348.5,261.5C 349.167,260.167 350.167,259.167 351.5,258.5 Z"/></g>
<g><path style="opacity:0.008" fill="#c1c1c1" d="M 228.5,269.5 C 228.5,270.833 227.833,271.5 226.5,271.5C 226.833,270.5 227.5,269.833 228.5,269.5 Z"/></g>
<g><path style="opacity:0.012" fill="#bfbfbf" d="M 353.5,269.5 C 353.5,270.833 352.833,271.5 351.5,271.5C 351.833,270.5 352.5,269.833 353.5,269.5 Z"/></g>
<g><path style="opacity:0.557" fill="#898989" d="M 294.5,266.5 C 295.924,268.515 296.59,270.848 296.5,273.5C 295.076,271.485 294.41,269.152 294.5,266.5 Z"/></g>
<g><path style="opacity:0.016" fill="#c7c7c7" d="M 199.5,275.5 C 200.434,276.568 200.768,277.901 200.5,279.5C 199.209,279.737 198.209,279.404 197.5,278.5C 199.048,278.179 199.715,277.179 199.5,275.5 Z"/></g>
<g><path style="opacity:0.776" fill="#8b8b8b" d="M 215.5,282.5 C 216.167,283.167 216.833,283.833 217.5,284.5C 216.325,284.719 215.325,284.386 214.5,283.5C 214.624,282.893 214.957,282.56 215.5,282.5 Z"/></g>
<g><path style="opacity:0.863" fill="#656565" d="M 325.5,283.5 C 324.833,286.167 323.167,287.833 320.5,288.5C 321.833,286.5 323.5,284.833 325.5,283.5 Z"/></g>
<g><path style="opacity:0.02" fill="#e1e1e1" d="M 204.5,295.5 C 203.833,295.5 203.167,295.5 202.5,295.5C 203.167,292.833 203.833,292.833 204.5,295.5 Z"/></g>
<g><path style="opacity:0.004" fill="#bebebe" d="M 328.5,293.5 C 328.5,294.833 327.833,295.5 326.5,295.5C 326.833,294.5 327.5,293.833 328.5,293.5 Z"/></g>
<g><path style="opacity:0.557" fill="#999999" d="M 307.5,301.5 C 306.625,303.806 305.292,304.473 303.5,303.5C 304.605,302.4 305.938,301.733 307.5,301.5 Z"/></g>
<g><path style="opacity:0.584" fill="#9d9d9d" d="M 178.5,305.5 C 176.761,308.243 174.427,310.243 171.5,311.5C 173.239,308.757 175.573,306.757 178.5,305.5 Z"/></g>
<g><path style="opacity:0.737" fill="#6a6a6a" d="M 261.5,306.5 C 264.152,306.41 266.485,307.076 268.5,308.5C 265.848,308.59 263.515,307.924 261.5,306.5 Z"/></g>
<g><path style="opacity:0.561" fill="#858585" d="M 126.5,304.5 C 127.924,306.515 128.59,308.848 128.5,311.5C 127.076,309.485 126.41,307.152 126.5,304.5 Z"/></g>
<g><path style="opacity:0.706" fill="#747474" d="M 271.5,309.5 C 274.152,309.41 276.485,310.076 278.5,311.5C 275.848,311.59 273.515,310.924 271.5,309.5 Z"/></g>
<g><path style="opacity:0.631" fill="#7c7c7c" d="M 278.5,311.5 C 281.152,311.41 283.485,312.076 285.5,313.5C 282.848,313.59 280.515,312.924 278.5,311.5 Z"/></g>
<g><path style="opacity:0.514" fill="#8e8e8e" d="M 219.5,318.5 C 220.924,320.515 221.59,322.848 221.5,325.5C 220.076,323.485 219.41,321.152 219.5,318.5 Z"/></g>
<g><path style="opacity:0.424" fill="#aaaaaa" d="M 285.5,322.5 C 284.833,323.833 283.833,324.833 282.5,325.5C 282.5,323.5 283.5,322.5 285.5,322.5 Z"/></g>
<g><path style="opacity:0.416" fill="#aeaeae" d="M 155.5,327.5 C 154.833,328.833 153.833,329.833 152.5,330.5C 152.5,328.5 153.5,327.5 155.5,327.5 Z"/></g>
<g><path style="opacity:0.51" fill="#929292" d="M 131.5,324.5 C 132.924,326.515 133.59,328.848 133.5,331.5C 132.076,329.485 131.41,327.152 131.5,324.5 Z"/></g>
<g><path style="opacity:0.004" fill="#cacaca" d="M 166.5,329.5 C 166.5,330.833 165.833,331.5 164.5,331.5C 164.833,330.5 165.5,329.833 166.5,329.5 Z"/></g>
<g><path style="opacity:0.753" fill="#767676" d="M 273.5,333.5 C 272.833,336.167 271.167,337.833 268.5,338.5C 269.833,336.5 271.5,334.833 273.5,333.5 Z"/></g>
<g><path style="opacity:0.945" fill="#6a6a6a" d="M 223.5,335.5 C 224.924,337.515 225.59,339.848 225.5,342.5C 224.076,340.485 223.41,338.152 223.5,335.5 Z"/></g>
<g><path style="opacity:0.918" fill="#6e6e6e" d="M 134.5,336.5 C 136.04,338.838 136.706,341.505 136.5,344.5C 135.232,342.095 134.565,339.428 134.5,336.5 Z"/></g>
<g><path style="opacity:0.733" fill="#7c7c7c" d="M 143.5,338.5 C 142.833,341.167 141.167,342.833 138.5,343.5C 139.833,341.5 141.5,339.833 143.5,338.5 Z"/></g>
<g><path style="opacity:0.012" fill="#f3f3f3" d="M 146.5,349.5 C 146.5,350.167 146.5,350.833 146.5,351.5C 144.067,351.214 144.067,350.548 146.5,349.5 Z"/></g>
<g><path style="opacity:0.941" fill="#686868" d="M 226.5,347.5 C 228.04,349.838 228.706,352.505 228.5,355.5C 227.232,353.095 226.565,350.428 226.5,347.5 Z"/></g>
<g><path style="opacity:0.553" fill="#969696" d="M 254.5,352.5 C 252.761,355.243 250.427,357.243 247.5,358.5C 249.239,355.757 251.573,353.757 254.5,352.5 Z"/></g>
<g><path style="opacity:0.518" fill="#ababab" d="M 142.5,360.5 C 141.596,361.209 141.263,362.209 141.5,363.5C 140.218,362.292 140.218,360.958 141.5,359.5C 142.107,359.624 142.44,359.957 142.5,360.5 Z"/></g>
<g><path style="opacity:0.886" fill="#676767" d="M 247.5,358.5 C 246.833,361.167 245.167,362.833 242.5,363.5C 243.833,361.5 245.5,359.833 247.5,358.5 Z"/></g>
<g><path style="opacity:0.663" fill="#808080" d="M 182.5,371.5 C 185.152,371.41 187.485,372.076 189.5,373.5C 186.848,373.59 184.515,372.924 182.5,371.5 Z"/></g>
<g><path style="opacity:0.004" fill="#d0d0d0" d="M 222.5,370.5 C 223.404,371.209 223.737,372.209 223.5,373.5C 221.901,373.768 220.568,373.434 219.5,372.5C 221.179,372.715 222.179,372.048 222.5,370.5 Z"/></g>
<g><path style="opacity:0.91" fill="#727272" d="M 143.5,373.5 C 144.924,375.515 145.59,377.848 145.5,380.5C 144.076,378.485 143.41,376.152 143.5,373.5 Z"/></g>
<g><path style="opacity:0.965" fill="#696969" d="M 146.5,385.5 C 148.04,387.838 148.706,390.505 148.5,393.5C 147.232,391.095 146.565,388.428 146.5,385.5 Z"/></g>
<g><path style="opacity:0.008" fill="#c2c2c2" d="M 221.5,396.5 C 221.5,397.833 220.833,398.5 219.5,398.5C 219.833,397.5 220.5,396.833 221.5,396.5 Z"/></g>
<g><path style="opacity:0.686" fill="#7e7e7e" d="M 199.5,405.5 C 197.1,408.903 194.1,411.57 190.5,413.5C 192.9,410.097 195.9,407.43 199.5,405.5 Z"/></g>
<g><path style="opacity:0.918" fill="#777777" d="M 151.5,405.5 C 153.04,407.838 153.706,410.505 153.5,413.5C 152.232,411.095 151.565,408.428 151.5,405.5 Z"/></g>
<g><path style="opacity:0.584" fill="#858585" d="M 154.5,417.5 C 155.924,419.515 156.59,421.848 156.5,424.5C 155.076,422.485 154.41,420.152 154.5,417.5 Z"/></g>
<g><path style="opacity:0.659" fill="#909090" d="M 175.5,428.5 C 173.761,431.243 171.427,433.243 168.5,434.5C 170.239,431.757 172.573,429.757 175.5,428.5 Z"/></g>
<g><path style="opacity:0.137" fill="#dadada" d="M 160.5,440.5 C 161.167,440.5 161.833,440.5 162.5,440.5C 161.452,442.933 160.786,442.933 160.5,440.5 Z"/></g>
<g><path style="opacity:0.008" fill="#c1c1c1" d="M 166.5,449.5 C 166.5,450.833 165.833,451.5 164.5,451.5C 164.833,450.5 165.5,449.833 166.5,449.5 Z"/></g>
</svg>
