<?xml version="1.0" encoding="UTF-8"?>
<!DOCTYPE svg PUBLIC "-//W3C//DTD SVG 1.1//EN" "http://www.w3.org/Graphics/SVG/1.1/DTD/svg11.dtd">
<svg xmlns="http://www.w3.org/2000/svg" version="1.1" width="32px" height="32px" style="shape-rendering:geometricPrecision; text-rendering:geometricPrecision; image-rendering:optimizeQuality; fill-rule:evenodd; clip-rule:evenodd" xmlns:xlink="http://www.w3.org/1999/xlink">
<g><path style="opacity:1" fill="#060201" d="M -0.5,-0.5 C 4.5,-0.5 9.5,-0.5 14.5,-0.5C 11.9906,0.921263 9.65725,2.58793 7.5,4.5C 5.74203,4.87688 4.07536,5.54355 2.5,6.5C 1.33676,12.1375 1.17009,17.8041 2,23.5C 2.81595,24.8228 3.98261,25.4894 5.5,25.5C 5.84171,26.3382 6.50838,26.6716 7.5,26.5C 9.5,28.1667 11.5,29.8333 13.5,31.5C 8.83333,31.5 4.16667,31.5 -0.5,31.5C -0.5,20.8333 -0.5,10.1667 -0.5,-0.5 Z"/></g>
<g><path style="opacity:1" fill="#040101" d="M 16.5,-0.5 C 21.5,-0.5 26.5,-0.5 31.5,-0.5C 31.5,10.1667 31.5,20.8333 31.5,31.5C 26.5,31.5 21.5,31.5 16.5,31.5C 20.5172,28.7329 24.6839,26.0663 29,23.5C 29.6667,18.1667 29.6667,12.8333 29,7.5C 24.6839,4.93374 20.5172,2.26708 16.5,-0.5 Z"/></g>
<g><path style="opacity:1" fill="#190c07" d="M 8.5,8.5 C 6.80584,9.68595 5.13918,9.51929 3.5,8C 5.09309,7.05127 6.42643,5.88461 7.5,4.5C 8.84736,3.97169 10.1807,3.80503 11.5,4C 10.1175,5.27083 9.11746,6.77083 8.5,8.5 Z"/></g>
<g><path style="opacity:1" fill="#b15437" d="M 7.5,4.5 C 6.42643,5.88461 5.09309,7.05127 3.5,8C 5.13918,9.51929 6.80584,9.68595 8.5,8.5C 8.36784,11.0069 7.36784,11.6736 5.5,10.5C 4.85013,10.1961 4.18346,9.86273 3.5,9.5C 2.51592,12.4281 2.18259,15.4281 2.5,18.5C 2.23219,20.099 2.56552,21.4324 3.5,22.5C 4.16667,22.5 4.83333,22.5 5.5,22.5C 4.16667,23.5 4.16667,24.5 5.5,25.5C 3.98261,25.4894 2.81595,24.8228 2,23.5C 1.17009,17.8041 1.33676,12.1375 2.5,6.5C 4.07536,5.54355 5.74203,4.87688 7.5,4.5 Z"/></g>
<g><path style="opacity:1" fill="#843f2a" d="M 14.5,-0.5 C 15.1667,-0.5 15.8333,-0.5 16.5,-0.5C 20.5172,2.26708 24.6839,4.93374 29,7.5C 29.6667,12.8333 29.6667,18.1667 29,23.5C 24.6839,26.0663 20.5172,28.7329 16.5,31.5C 15.5,31.5 14.5,31.5 13.5,31.5C 11.5,29.8333 9.5,28.1667 7.5,26.5C 6.50838,26.6716 5.84171,26.3382 5.5,25.5C 4.16667,24.5 4.16667,23.5 5.5,22.5C 8.11279,23.4349 10.7795,23.6015 13.5,23C 11.208,19.5838 9.04136,16.0838 7,12.5C 5.53006,15.7439 4.3634,19.0772 3.5,22.5C 2.56552,21.4324 2.23219,20.099 2.5,18.5C 4.26708,16.2084 5.26708,13.5418 5.5,10.5C 7.36784,11.6736 8.36784,11.0069 8.5,8.5C 9.11746,6.77083 10.1175,5.27083 11.5,4C 10.1807,3.80503 8.84736,3.97169 7.5,4.5C 9.65725,2.58793 11.9906,0.921263 14.5,-0.5 Z"/></g>
<g><path style="opacity:1" fill="#140905" d="M 18.5,2.5 C 21.3116,4.07647 23.9783,5.9098 26.5,8C 25.2411,8.98191 23.9078,9.31525 22.5,9C 20.9146,6.93067 19.5813,4.764 18.5,2.5 Z"/></g>
<g><path style="opacity:1" fill="#070201" d="M 14.5,1.5 C 23.0088,8.71118 21.3421,11.2112 9.5,9C 11.3887,6.6182 13.0553,4.1182 14.5,1.5 Z"/></g>
<g><path style="opacity:1" fill="#0e0603" d="M 25.5,9.5 C 26.7479,10.3339 27.4146,11.6672 27.5,13.5C 27.3333,14.8333 27.1667,16.1667 27,17.5C 24.8837,15.0036 24.3837,12.3369 25.5,9.5 Z"/></g>
<g><path style="opacity:1" fill="#0d0503" d="M 5.5,10.5 C 5.26708,13.5418 4.26708,16.2084 2.5,18.5C 2.18259,15.4281 2.51592,12.4281 3.5,9.5C 4.18346,9.86273 4.85013,10.1961 5.5,10.5 Z"/></g>
<g><path style="opacity:1" fill="#070201" d="M 8.5,12.5 C 12.6829,11.1889 17.0162,11.1889 21.5,12.5C 19.3333,16.1667 17.1667,19.8333 15,23.5C 13.3109,19.4401 11.1442,15.7734 8.5,12.5 Z"/></g>
<g><path style="opacity:1" fill="#0a0302" d="M 5.5,22.5 C 4.83333,22.5 4.16667,22.5 3.5,22.5C 4.3634,19.0772 5.53006,15.7439 7,12.5C 9.04136,16.0838 11.208,19.5838 13.5,23C 10.7795,23.6015 8.11279,23.4349 5.5,22.5 Z"/></g>
<g><path style="opacity:1" fill="#0c0402" d="M 22.5,12.5 C 24.438,15.4449 26.1047,18.6116 27.5,22C 24.1783,23.3924 20.8449,23.5591 17.5,22.5C 19.2255,19.1331 20.8921,15.7997 22.5,12.5 Z"/></g>
<g><path style="opacity:1" fill="#0f0603" d="M 7.5,26.5 C 6.14054,24.9907 6.64054,24.324 9,24.5C 10.825,24.9434 12.6583,25.2767 14.5,25.5C 14.6567,26.8734 14.49,28.2068 14,29.5C 12.0065,28.086 9.83984,27.086 7.5,26.5 Z"/></g>
<g><path style="opacity:1" fill="#160a06" d="M 20.5,24.5 C 21.8734,24.3433 23.2068,24.51 24.5,25C 21.7053,26.2997 19.0387,27.7997 16.5,29.5C 15.5713,28.3112 15.238,26.9778 15.5,25.5C 17.4147,25.7845 19.0813,25.4511 20.5,24.5 Z"/></g>
</svg>
